<svg id="Layer_5" enable-background="new 0 0 64 64" height="512" viewBox="0 0 64 64" width="512" xmlns="http://www.w3.org/2000/svg"><g><g><g fill="#b4dd7f"><path d="m46 17.95v6.05h-2-2v-6.21-13.79c0-.55.22-1.05.59-1.41.36-.37.86-.59 1.41-.59 1.1 0 2 .9 2 2z"/><path d="m56 4c1.1 0 2 .9 2 2s-.9 2-2 2c-1.31.08-4.65 5.56-8 16h-2v-6.05c2.42-6.85 6.17-13.95 10-13.95z"/><path d="m42 17.79v6.21h-2c-3.35-10.44-6.69-15.92-8-16-1.1 0-2-.9-2-2s.9-2 2-2c3.8 0 7.52 6.99 9.94 13.79z"/></g><path d="m27.59 52.62c.57 1.23 1.28 2.37 2.13 3.39-2.29 1.27-4.92 1.99-7.72 1.99-8.5 0-15.45-6.63-15.97-15v-2c.25-3.98 1.95-7.55 4.58-10.22l2.83 2.83c-2.13 2.17-3.44 5.12-3.44 8.39 0 6.29 4.84 11.45 11 11.96h2c1.65-.14 3.2-.61 4.59-1.34z" fill="#ccd1d9"/><path d="m29.72 56.01c.87 1.05 1.89 1.98 3.04 2.78-7.72 5.02-18.15 4.15-24.93-2.62-7.77-7.78-7.77-20.39 0-28.17l2.78 2.78c-2.63 2.67-4.33 6.24-4.58 10.22v2c.52 8.37 7.47 15 15.97 15 2.8 0 5.43-.72 7.72-1.99z" fill="#f5f7fa"/><path d="m26.03 46.2h.01c0 .07 0 .15.01.22.15 2.26.68 4.34 1.54 6.2-1.39.73-2.94 1.2-4.59 1.34h-2c-6.16-.51-11-5.67-11-11.96 0-3.27 1.31-6.22 3.44-8.39l4.24 4.24z" fill="#f5f7fa"/><path d="m38 45c0 9 3 17 6 17-4 0-12-7-12-17 0-7 8-9 8-21h2 2c0 6-6 16-6 21z" fill="#f5f7fa"/><path d="m50 45c0 9-3 17-6 17s-6-8-6-17c0-5 6-15 6-21 0 6 6 16 6 21z" fill="#e6e9ed"/><path d="m62 45c0 10-7 17-18 17 4 0 12-7 12-17 0-7-8-9-8-21 0 4 14 11 14 21z" fill="#e6e9ed"/><path d="m48 24c0 12 8 14 8 21 0 10-8 17-12 17 3 0 6-8 6-17 0-5-6-15-6-21h2z" fill="#f5f7fa"/><path d="m40 24c0 12-8 14-8 21 0 10 8 17 12 17-4.48 0-8.29-1.16-11.24-3.21-1.15-.8-2.17-1.73-3.04-2.78-.85-1.02-1.56-2.16-2.13-3.39-.86-1.86-1.39-3.94-1.54-6.2-.01-.07-.01-.15-.01-.22-.03-.39-.04-.79-.04-1.2 0-10 14-17 14-21z" fill="#e6e9ed"/></g><path d="m53.365 29.275c-2.09-1.988-4.232-4.036-4.344-5.178 3.378-10.45 6.334-14.658 7.111-15.101 1.593-.068 2.868-1.386 2.868-2.996 0-1.654-1.346-3-3-3-3.697 0-6.831 4.963-9 9.76v-8.76c0-1.654-1.346-3-3-3s-3 1.346-3 3v8.76c-2.162-4.777-5.301-9.76-9-9.76-1.654 0-3 1.346-3 3 0 1.631 1.308 2.962 2.868 2.997.777.442 3.734 4.652 7.111 15.101-.112 1.142-2.255 3.189-4.344 5.178-3.818 3.634-8.96 8.529-9.573 14.539l-17.229-17.229-.707.707c-3.95 3.951-6.126 9.203-6.126 14.79s2.176 10.84 6.126 14.79c4.025 4.024 9.412 6.107 14.832 6.106 3.724 0 7.46-.997 10.782-3.01 3.052 1.944 6.874 3.031 11.26 3.031 11.364 0 19-7.233 19-18 0-6.555-5.569-11.854-9.635-15.725zm-4.956 29.582c1.629-3.52 2.591-8.786 2.591-13.857 0-2.573-1.391-6.16-2.863-9.958-1.376-3.549-2.785-7.2-3.075-10.042h1.963c.246 6.488 2.847 10.133 4.961 13.084 1.684 2.35 3.014 4.206 3.014 6.916 0 6.32-3.375 11.224-6.591 13.857zm-11.141-2.248c-1.594-1.912-4.268-5.963-4.268-11.609 0-2.71 1.33-4.566 3.014-6.916 2.114-2.951 4.715-6.596 4.961-13.084h1.963c-.29 2.842-1.699 6.493-3.075 10.042-1.472 3.798-2.863 7.385-2.863 9.958 0 5.109.977 10.416 2.629 13.935-.78-.628-1.58-1.388-2.361-2.326zm18.732-51.609c.551 0 1 .448 1 1s-.449 1-1.064 1.002c-2.579.166-6.219 8.564-8.66 15.998h-.276v-4.873c2.886-8.1 6.329-13.127 9-13.127zm-12-2c.551 0 1 .448 1 1v19h-2v-19c0-.552.449-1 1-1zm-12 4c-.551 0-1-.448-1-1s.449-1 1-1c2.665 0 6.113 5.028 9 13.123v4.877h-.276c-2.442-7.434-6.083-15.832-8.724-16zm-23.459 48.459c-3.573-3.572-5.541-8.323-5.541-13.376 0-4.718 1.715-9.172 4.852-12.65l1.378 1.378c-2.475 2.823-3.964 6.377-4.196 10.128l1.996.123c.202-3.264 1.483-6.362 3.615-8.836l1.417 1.417c-1.976 2.342-3.062 5.269-3.062 8.357 0 6.714 5.235 12.404 11.918 12.956l.164-1.994c-5.653-.466-10.082-5.281-10.082-10.962 0-2.555.875-4.983 2.476-6.943l2.855 2.855c-.859 1.187-1.331 2.604-1.331 4.088 0 1.23.324 2.441.937 3.501l1.731-1.002c-.437-.756-.668-1.62-.668-2.499 0-.949.272-1.86.769-2.649l6.874 6.874c-1.542.946-3.575 1.013-5.142.108l-1.002 1.73c1.059.613 2.27.937 3.501.937 1.147 0 2.26-.285 3.256-.812.212 1.389.553 2.706 1.033 3.934-1.071.456-2.2.743-3.373.841l.166 1.992c1.403-.116 2.752-.464 4.032-1.015.322.601.687 1.168 1.076 1.717-1.934.878-4.051 1.343-6.19 1.343-7.909 0-14.485-6.177-14.971-14.062l-1.996.123c.55 8.938 8.004 15.939 16.967 15.939 2.601 0 5.173-.606 7.494-1.747.466.506.966.98 1.496 1.425-7.276 3.976-16.505 2.725-22.449-3.219zm18.459-10.459c0-5.697 4.998-10.453 9.014-14.275.976-.929 1.854-1.768 2.598-2.552-.774 3.925-2.581 6.454-4.223 8.747-1.743 2.431-3.389 4.727-3.389 8.08 0 6.622 3.306 12.007 6.899 15.108-6.699-2.064-10.899-7.615-10.899-15.108zm12 0c0-2.199 1.325-5.616 2.728-9.235.82-2.115 1.651-4.266 2.272-6.308.621 2.042 1.452 4.193 2.272 6.308 1.403 3.619 2.728 7.036 2.728 9.235 0 9.129-3.033 16-5 16s-5-6.871-5-16zm11.101 15.108c3.593-3.101 6.899-8.486 6.899-15.108 0-3.353-1.646-5.649-3.388-8.081-1.643-2.293-3.449-4.822-4.223-8.747.744.784 1.621 1.623 2.598 2.552 4.015 3.823 9.013 8.579 9.013 14.276 0 7.493-4.2 13.044-10.899 15.108z"/></g></svg>