<svg height="480pt" viewBox="0 0 480 480.0401" width="480pt" xmlns="http://www.w3.org/2000/svg"><path d="m112.019531 240c-.023437 54.335938 34.261719 102.765625 85.519531 120.800781 6.3125 2.257813 10.511719 8.253907 10.480469 14.960938v16.238281h32v-279.800781c-70.652343-.085938-127.976562 57.148437-128 127.800781zm0 0" fill="#f2b134"/><path d="m367.859375 234.160156c-3.425781-65.816406-55.949219-118.445312-121.757813-122-2.050781-.097656-4.050781 0-6.082031 0v279.839844h32v-16.238281c0-6.71875 4.230469-12.710938 10.558594-14.960938 53.25-18.785156 87.898437-70.238281 85.28125-126.640625zm0 0" fill="#f4bf59"/><path d="m472.019531 288v-96h-46.078125c-4.484375-17.367188-11.40625-34.015625-20.5625-49.441406l32.640625-32.636719-67.917969-67.921875-32.640624 32.640625c-15.425782-9.15625-32.074219-16.078125-49.441407-20.5625v-46.078125h-96v46.078125c-17.367187 4.484375-34.011719 11.40625-49.441406 20.5625l-32.636719-32.640625-67.921875 67.921875 32.640625 32.636719c-9.15625 15.425781-16.078125 32.074218-20.558594 49.441406h-46.082031v96h46.082031c4.480469 17.367188 11.402344 34.015625 20.558594 49.441406l-32.640625 32.636719 67.921875 67.921875 32.636719-32.640625c15.429687 9.15625 32.074219 16.078125 49.441406 20.5625v-33.921875h16v-16.230469c.023438-6.710937-4.179687-12.707031-10.496093-14.96875-58.820313-20.730469-94.136719-80.832031-83.621094-142.304687 10.511718-61.472656 63.800781-106.417969 126.164062-106.417969 62.367188 0 115.65625 44.945313 126.167969 106.417969 10.515625 61.472656-24.800781 121.574218-83.621094 142.304687-6.34375 2.242188-10.589843 8.238281-10.59375 14.96875v16.230469h16v33.921875c17.367188-4.484375 34.015625-11.40625 49.441407-20.5625l32.640624 32.640625 67.917969-67.921875-32.640625-32.636719c9.15625-15.425781 16.078125-32.074218 20.5625-49.441406zm0 0" fill="#47ab6c"/><path d="m272.019531 392h-80v48h96v-48zm0 0" fill="#808285"/><path d="m240.019531 472c17.671875 0 32-14.328125 32-32h-64c0 17.671875 14.328125 32 32 32zm0 0" fill="#ee2820"/><path d="m304.019531 232v-16h-16c-26.507812 0-48 21.492188-48 48v16h16c26.511719 0 48-21.492188 48-48zm0 0" fill="#5eac24"/><path d="m192.019531 216h-16v16c0 26.507812 21.492188 48 48 48h16v-16c0-26.507812-21.488281-48-48-48zm0 0" fill="#4e901e"/><g fill="#231f20"><path d="m232.019531 32h16v16h-16zm0 0"/><path d="m87.285156 98.574219 11.3125-11.3125 11.316406 11.3125-11.316406 11.316406zm0 0"/><path d="m32.019531 232h16v16h-16zm0 0"/><path d="m87.28125 381.429688 11.3125-11.316407 11.316406 11.316407-11.316406 11.3125zm0 0"/><path d="m370.132812 381.425781 11.3125-11.316406 11.316407 11.316406-11.316407 11.3125zm0 0"/><path d="m432.019531 232h16v16h-16zm0 0"/><path d="m370.128906 98.570312 11.3125-11.3125 11.316406 11.3125-11.316406 11.316407zm0 0"/><path d="m480.019531 296v-112h-48c-4.0625-13.941406-9.652343-27.394531-16.664062-40.113281l33.96875-33.964844-79.199219-79.203125-33.96875 33.96875c-12.722656-7.023438-26.183594-12.617188-40.136719-16.6875v-48h-112v48c-13.941406 4.0625-27.394531 9.652344-40.113281 16.664062l-33.964844-33.976562-79.203125 79.199219 33.96875 33.96875c-7.023437 12.726562-12.617187 26.191406-16.6875 40.144531h-47.9999998v112h47.9999998c4.0625 13.941406 9.652344 27.394531 16.664063 40.113281l-33.976563 33.964844 79.199219 79.203125 33.96875-33.96875c12.730469 6.992188 26.195312 12.558594 40.144531 16.597656v16.089844h16.800781c3.785157 18.644531 20.175782 32.039062 39.199219 32.039062 19.023438 0 35.414063-13.394531 39.199219-32.039062h16.800781v-16.089844c13.9375-4.03125 27.390625-9.589844 40.113281-16.566406l33.96875 33.96875 79.199219-79.199219-33.96875-33.96875c7.023438-12.726562 12.621094-26.191406 16.6875-40.144531zm-240 168c-10.167969-.011719-19.230469-6.417969-22.632812-16h45.265625c-3.402344 9.582031-12.464844 15.988281-22.632813 16zm40-32h-80v-32h80zm-79.839843-78.742188c-48-16.976562-80.109376-62.34375-80.160157-113.257812 0-32.8125 13.4375-64.191406 37.179688-86.835938 23.746093-22.644531 55.726562-34.582031 88.5-33.027343 61.75 3.246093 111.054687 52.644531 114.191406 114.398437 2.628906 52.925782-29.914063 101.257813-79.941406 118.730469-9.53125 3.382813-15.90625 12.390625-15.929688 22.503906v8.230469h-16v-96h8c30.914063-.035156 55.964844-25.085938 56-56v-24h-24c-19.6875.03125-37.910156 10.398438-48 27.304688-10.085937-16.90625-28.3125-27.273438-48-27.304688h-24v24c.035157 30.914062 25.085938 55.964844 56 56h8v96h-16v-8.230469c.019531-10.101562-6.324219-19.121093-15.839843-22.511719zm47.839843-89.257812c.027344-22.082031 17.921875-39.972656 40-40h8v8c-.027343 22.082031-17.917969 39.972656-40 40h-8zm-16 8h-8c-22.078125-.027344-39.972656-17.917969-40-40v-8h8c22.082031.027344 39.972657 17.917969 40 40zm186.175781 13.992188c-4.296874 16.636718-10.925781 32.578124-19.6875 47.359374l-3.199218 5.34375 31.382812 31.382813-56.589844 56.609375-31.386718-31.382812-5.34375 3.199218c-11.78125 6.953125-24.3125 12.554688-37.351563 16.695313v-31.199219h-16v-8.230469c0-3.347656 2.105469-6.335937 5.257813-7.457031 56.6875-19.792969 93.566406-74.558594 90.597656-134.527344-3.589844-69.976562-59.46875-125.921875-129.4375-129.601562-67.484375-3.285156-127.152344 43.46875-140.097656 109.78125-12.945313 66.3125 24.753906 132.074218 88.519531 154.410156 3.121094 1.132812 5.1875 4.105469 5.160156 7.425781v8.199219h-16v31.199219c-13.039062-4.148438-25.570312-9.757813-37.351562-16.71875l-5.34375-3.199219-31.382813 31.40625-56.609375-56.609375 31.382813-31.382813-3.199219-5.34375c-8.761719-14.78125-15.390625-30.722656-19.6875-47.359374l-1.535156-5.992188h-44.273438v-80h44.273438l1.550781-5.992188c4.296875-16.636718 10.925781-32.582031 19.6875-47.359374l3.199219-5.34375-31.398438-31.382813 56.609375-56.609375 31.382813 31.382812 5.34375-3.199218c14.777343-8.765625 30.722656-15.390625 47.359375-19.6875l5.992187-1.535156v-44.273438h80v44.273438l5.992188 1.550781c16.636719 4.296875 32.582031 10.921875 47.359375 19.6875l5.34375 3.199219 31.386718-31.398438 56.605469 56.609375-31.382812 31.382813 3.199219 5.34375c8.765624 14.777343 15.394531 30.722656 19.6875 47.359374l1.554687 5.992188h44.253906v80h-44.269531zm0 0"/><path d="m208.019531 408h16v16h-16zm0 0"/><path d="m232.019531 408h16v16h-16zm0 0"/><path d="m256.019531 408h16v16h-16zm0 0"/></g></svg>