<svg width="496" height="496" viewBox="0 0 496 496" fill="none" xmlns="http://www.w3.org/2000/svg">
<g clip-path="url(#clip0)">
<path d="M247.992 5.16302C111.048 5.16302 0 116.627 0 254.163C0 364.155 71.048 457.483 169.632 490.403C182.024 492.699 186.544 485.011 186.544 478.403C186.544 472.499 186.328 456.843 186.208 436.059C117.208 451.123 102.656 402.683 102.656 402.683C91.392 373.915 75.136 366.275 75.136 366.275C52.608 350.819 76.832 351.115 76.832 351.115C101.712 352.867 114.808 376.787 114.808 376.787C136.952 414.835 172.872 403.835 187 397.459C189.232 381.379 195.656 370.395 202.736 364.179C147.68 357.883 89.792 336.539 89.792 241.139C89.792 213.963 99.448 191.731 115.312 174.307C112.744 168.011 104.24 142.707 117.728 108.435C117.728 108.435 138.56 101.747 185.928 133.955C205.712 128.435 226.928 125.675 248.024 125.563C269.072 125.675 290.304 128.427 310.12 133.955C357.448 101.747 378.248 108.435 378.248 108.435C391.768 142.707 383.264 168.011 380.704 174.307C396.608 191.731 406.208 213.955 406.208 241.139C406.208 336.779 348.224 357.819 292.976 363.995C301.88 371.683 309.808 386.867 309.808 410.107C309.808 443.403 309.512 470.235 309.512 478.403C309.512 485.075 313.984 492.827 326.56 490.371C425.016 457.387 496 364.123 496 254.163C496 116.627 384.952 5.16302 247.992 5.16302Z" fill="#3E77BF"/>
<path d="M247.992 5.16302C111.048 5.16302 0 116.627 0 254.163C0 364.155 71.048 457.483 169.632 490.403C182.024 492.699 186.544 485.011 186.544 478.403C186.544 472.499 186.328 456.843 186.208 436.059C117.208 451.123 102.656 402.683 102.656 402.683C91.392 373.915 75.136 366.275 75.136 366.275C52.608 350.819 76.832 351.115 76.832 351.115C101.712 352.867 114.808 376.787 114.808 376.787C136.952 414.835 172.872 403.835 187 397.459C189.232 381.379 195.656 370.395 202.736 364.179C147.68 357.883 89.792 336.539 89.792 241.139C89.792 213.963 99.448 191.731 115.312 174.307C112.744 168.011 104.24 142.707 117.728 108.435C117.728 108.435 138.56 101.747 185.928 133.955C205.712 128.435 226.928 125.675 248.024 125.563C269.072 125.675 290.304 128.427 310.12 133.955C357.448 101.747 378.248 108.435 378.248 108.435C391.768 142.707 383.264 168.011 380.704 174.307C396.608 191.731 406.208 213.955 406.208 241.139C406.208 336.779 348.224 357.819 292.976 363.995C301.88 371.683 309.808 386.867 309.808 410.107C309.808 443.403 309.512 470.235 309.512 478.403C309.512 485.075 313.984 492.827 326.56 490.371C425.016 457.387 496 364.123 496 254.163C496 116.627 384.952 5.16302 247.992 5.16302Z" fill="#40FF00"/>
<path d="M378.496 109.131C391.624 143.035 383.248 168.059 380.696 174.307C396.6 191.731 406.2 213.955 406.2 241.139C406.2 336.779 348.216 357.819 292.968 363.995C301.872 371.683 309.8 386.867 309.8 410.107C309.8 443.403 309.504 470.235 309.504 478.403C309.504 485.075 313.976 492.827 326.552 490.371C425.016 457.387 496 364.123 496 254.163C496 224.603 490.848 196.267 481.432 169.963C447.24 133.963 409.184 109.987 378.496 109.131Z" fill="#40FF00"/>
<path d="M192.976 377.323C195.76 371.707 199.16 367.339 202.736 364.179C172.56 360.723 141.568 352.667 119.688 330.435C136.52 358.451 163.928 371.195 192.976 377.323Z" fill="white"/>
<path d="M12.912 270.947C12.912 133.411 123.96 21.947 260.904 21.947C336.944 21.947 404.96 56.339 450.44 110.435C405.52 46.755 331.616 5.16302 247.992 5.16302C111.048 5.16302 0 116.627 0 254.163C0 315.483 22.12 371.587 58.752 414.955C29.944 374.291 12.912 324.643 12.912 270.947Z" fill="white"/>
<path d="M322.712 426.899C322.712 403.667 314.784 388.459 305.88 380.771C361.128 374.611 419.12 353.555 419.12 257.923C419.12 230.739 409.52 208.523 393.6 191.099C396.176 184.803 404.696 159.491 391.144 125.227C391.144 125.227 388.568 124.435 383.248 124.739C389.056 150.579 382.832 169.059 380.696 174.307C396.6 191.731 406.2 213.955 406.2 241.139C406.2 336.779 348.216 357.819 292.968 363.995C301.872 371.683 309.8 386.867 309.8 410.107C309.8 443.403 309.504 470.235 309.504 478.403C309.504 484.275 313 490.971 322.424 490.811C322.488 479.555 322.712 455.659 322.712 426.899Z" fill="white"/>
<path d="M117.464 423.995C122.672 434.715 140.176 460.395 186.352 454.987C186.288 449.339 186.24 443.011 186.208 436.059C150.584 443.835 129.552 434.667 117.464 423.995Z" fill="white"/>
<path d="M126.368 391.387C124.776 388.987 121.792 384.915 117.464 380.843C120.272 385.011 123.256 388.507 126.368 391.387Z" fill="#6CA9EA"/>
</g>
<defs>
<clipPath id="clip0">
<rect width="496" height="496" fill="white"/>
</clipPath>
</defs>
</svg>
