<svg width="512" height="512" viewBox="0 0 512 512" fill="none" xmlns="http://www.w3.org/2000/svg">
<path d="M3.92533 223.189C-12.6933 327.851 33.8133 454.08 177.216 500.651C179.776 501.12 182.144 501.333 184.363 501.333C201.045 501.333 212.523 488.917 212.523 473.6C210.453 462.443 220.693 417.237 192.896 423.317C139.157 434.752 132.715 404.736 124.523 389.035C147.691 418.773 182.507 418.027 208.768 406.507C223.339 400.107 215.723 383.808 222.635 377.856C233.216 368.768 227.84 351.339 213.952 349.824C164.587 344.384 118.869 328.469 118.869 249.515C118.869 203.264 150.976 199.125 142.123 179.776C141.803 179.072 135.019 163.691 141.163 140.331C171.435 145.92 185.365 167.637 199.893 163.733C235.883 153.92 275.499 153.92 311.467 163.733C326.485 167.765 337.216 146.645 369.877 140.203C379.285 175.488 359.787 184.107 372.075 197.312C385.557 211.819 392.405 229.376 392.405 249.515C392.405 368.213 291.776 333.931 283.584 360.875C281.707 367.019 283.691 373.653 288.597 377.771C301.611 388.715 299.904 416.811 298.517 439.403C297.088 462.827 295.851 483.029 308.8 494.421C313.365 498.475 321.493 502.805 336.192 499.819C477.717 454.357 524.565 328.683 508.203 224.256C463.488 -60.928 48.9813 -60.5867 3.92533 223.189V223.189ZM180.352 457.387L180.437 468.16C169.28 464.299 158.784 459.84 148.971 454.869C158.037 457.195 168.448 458.197 180.352 457.387V457.387ZM188.245 378.453C188.139 379.008 188.032 379.584 187.925 380.16C169.728 385.536 155.733 380.181 146.176 364.117C146.176 364.096 146.176 364.096 146.155 364.075C160.661 371.84 175.616 376.021 188.245 378.453ZM256 42.6667C508.437 42.6667 565.376 389.696 330.005 468.075C329.195 461.739 329.941 449.792 330.453 441.365C331.691 421.077 333.141 397.44 325.909 377.685C434.453 355.093 443.52 235.904 401.728 182.805C406.912 162.496 404.821 114.773 386.176 108.928C381.781 107.541 358.336 102.443 312.853 131.051C275.712 122.176 235.627 122.155 198.485 131.051C175.787 116.821 124.629 93.6747 114.816 118.251C103.424 146.88 106.133 170.027 109.525 182.891C72.4267 229.909 83.5413 308.629 120.917 345.579C99.7333 335.445 70.5493 331.989 64.256 352.277C57.3653 374.4 83.712 371.712 100.075 412.096C101.632 417.131 104.512 423.04 108.928 428.907C-36.3733 310.187 33.728 42.6667 256 42.6667V42.6667Z" fill="white"/>
</svg>
