<?xml version="1.0"?>
<svg xmlns="http://www.w3.org/2000/svg" xmlns:xlink="http://www.w3.org/1999/xlink" xmlns:svgjs="http://svgjs.com/svgjs" version="1.1" width="512" height="512" x="0" y="0" viewBox="0 0 64 64" style="enable-background:new 0 0 512 512" xml:space="preserve" class=""><g><g xmlns="http://www.w3.org/2000/svg"><g><g><path d="m18 10v38h42c1.1 0 2-.9 2-2v-16-20z" fill="#ffeaa7" data-original="#ffeaa7" style="" class=""/></g><g><path d="m18 10v-6c0-1.1.9-2 2-2h40c1.1 0 2 .9 2 2v6z" fill="#d7e057" data-original="#b4dd7f" style="" class=""/></g><g><path d="m7.11 50.53.21 1.25h-.01c-.41.14-.85.22-1.31.22-.73 0-1.41-.2-2-.54-1.2-.69-2-1.98-2-3.46 0-2.21 1.79-4 4-4 1.15 0 2.19.49 2.93 1.27-1.61 1.42-2.19 3.42-1.82 5.26z" fill="#ccd1d9" data-original="#ccd1d9" style=""/></g><g><path d="m30 52c-.46 0-.9-.08-1.31-.22h-.01l.21-1.25c.37-1.84-.21-3.83-1.81-5.26.73-.78 1.77-1.27 2.92-1.27 2.21 0 4 1.79 4 4 0 1.48-.8 2.77-2 3.46-.59.34-1.27.54-2 .54z" fill="#ccd1d9" data-original="#ccd1d9" style=""/></g><g><path d="m7.32 51.78 1.68 10.22h-5v-10.54c.59.34 1.27.54 2 .54.46 0 .9-.08 1.31-.22z" fill="#e6e9ed" data-original="#e6e9ed" style=""/></g><g><path d="m28.69 51.78c.41.14.85.22 1.31.22.73 0 1.41-.2 2-.54v10.54h-5l1.68-10.22z" fill="#e6e9ed" data-original="#e6e9ed" style=""/></g><g><path d="m21 40c.34 0 .67-.02.99-.08l.01.08v4l-.59.59c-.9.9-2.13 1.41-3.41 1.41s-2.51-.51-3.41-1.41l-.59-.59v-4l.01-.08c.32.06.65.08.99.08z" fill="#e6e9ed" data-original="#e6e9ed" style=""/></g><g><path d="m30.83 30.17c.72.73 1.17 1.73 1.17 2.83 0 2.21-1.79 4-4 4h-1.26c.8-1.13 1.26-2.51 1.26-4s-.46-2.87-1.26-4h1.26c1.1 0 2.1.45 2.83 1.17z" fill="#e6e9ed" data-original="#e6e9ed" style=""/></g><g><path d="m26.74 29c.8 1.13 1.26 2.51 1.26 4s-.46 2.87-1.26 4c-.23.34-.5.66-.79.95-1.05 1.05-2.42 1.76-3.96 1.97-.32.06-.65.08-.99.08h-6c-.34 0-.67-.02-.99-.08-1.97-.27-3.67-1.36-4.75-2.92-.8-1.13-1.26-2.51-1.26-4s.46-2.87 1.26-4c.23-.34.5-.66.79-.95 1.05-1.05 2.42-1.76 3.96-1.97.32-.06.65-.08.99-.08h6c.34 0 .67.02.99.08 1.97.27 3.67 1.36 4.75 2.92z" fill="#e6e9ed" data-original="#e6e9ed" style=""/></g><g><path d="m8 29h1.26c-.8 1.13-1.26 2.51-1.26 4s.46 2.87 1.26 4h-1.26c-1.1 0-2.1-.45-2.83-1.17-.72-.73-1.17-1.73-1.17-2.83 0-2.21 1.79-4 4-4z" fill="#e6e9ed" data-original="#e6e9ed" style=""/></g><g><path d="m27.08 45.27c1.6 1.43 2.18 3.42 1.81 5.26l-.21 1.25-1.68 10.22h-18l-1.68-10.22-.21-1.25c-.37-1.84.21-3.84 1.82-5.26.57-.51 1.27-.94 2.1-1.27h2.97l.59.59c.9.9 2.13 1.41 3.41 1.41s2.51-.51 3.41-1.41l.59-.59h2.97c.84.33 1.54.76 2.11 1.27z" fill="#ff826e" data-original="#ff826e" style=""/></g><g><path d="m12 50h12v8h-12z" fill="#69d6f4" data-original="#69d6f4" style=""/></g><g><path d="m22 26-.01.08c-.32-.06-.65-.08-.99-.08h-6c-.34 0-.67.02-.99.08l-.01-.08c0-1.1.45-2.1 1.17-2.83.73-.72 1.73-1.17 2.83-1.17 2.21 0 4 1.79 4 4z" fill="#ff826e" data-original="#ff826e" style=""/></g><g><circle cx="22" cy="33" fill="#969faa" r="2" data-original="#969faa" style=""/></g><g><circle cx="14" cy="33" fill="#969faa" r="2" data-original="#969faa" style=""/></g></g><g><path d="m22 36c1.654 0 3-1.346 3-3s-1.346-3-3-3-3 1.346-3 3 1.346 3 3 3zm0-4c.552 0 1 .449 1 1 0 .552-.448 1-1 1s-1-.448-1-1c0-.551.448-1 1-1z" fill="#000000" data-original="#000000" style="" class=""/><path d="m17 33c0-1.654-1.346-3-3-3s-3 1.346-3 3 1.346 3 3 3 3-1.346 3-3zm-3 1c-.552 0-1-.448-1-1 0-.551.448-1 1-1s1 .449 1 1c0 .552-.448 1-1 1z" fill="#000000" data-original="#000000" style="" class=""/><path d="m60 1h-40c-1.654 0-3 1.346-3 3v17.101c-2.035.415-3.606 2.075-3.924 4.143-1.724.428-3.23 1.411-4.311 2.756h-.765c-2.757 0-5 2.243-5 5s2.243 5 5 5h.765c1.065 1.325 2.542 2.299 4.235 2.737v2.263h-2.159l-.177.069c-.645.254-1.209.563-1.71.909-.852-.624-1.885-.978-2.954-.978-2.757 0-5 2.243-5 5 0 1.627.793 3.061 2 3.974v11.026h30v-11.026c.953-.721 1.652-1.762 1.899-2.974h25.101c1.654 0 3-1.346 3-3v-42c0-1.654-1.346-3-3-3zm-40 2h40c.552 0 1 .449 1 1v5h-42v-5c0-.551.448-1 1-1zm-2 20c1.302 0 2.402.839 2.816 2h-5.631c.413-1.161 1.513-2 2.815-2zm-13 10c0-1.508 1.122-2.747 2.573-2.957-.366.916-.573 1.912-.573 2.957s.207 2.041.573 2.957c-1.451-.21-2.573-1.449-2.573-2.957zm4 0c0-3.309 2.691-6 6-6h6c3.309 0 6 2.691 6 6s-2.691 6-6 6h-6c-3.309 0-6-2.691-6-6zm19.427-2.957c1.451.21 2.573 1.449 2.573 2.957s-1.122 2.747-2.573 2.957c.366-.916.573-1.912.573-2.957s-.207-2.041-.573-2.957zm-7.427 10.957v2.586l-.293.293c-.713.713-1.699 1.121-2.707 1.121s-1.994-.408-2.707-1.121l-.293-.293v-2.586zm-9.773 4h2.359l.293.293c1.085 1.085 2.587 1.707 4.121 1.707s3.036-.622 4.121-1.707l.293-.293h2.359c2.678 1.136 3.511 3.481 3.134 5.367l-1.755 10.633h-16.304l-1.761-10.666c-.371-1.854.462-4.198 3.14-5.334zm-5.227 0c.515 0 .999.141 1.435.38-1.296 1.623-1.655 3.616-1.315 5.313l.048.293c-.056.003-.111.014-.168.014-1.654 0-3-1.346-3-3s1.346-3 3-3zm-1 7.899c.323.066.658.101 1 .101.167 0 .33-.025.494-.041l1.328 8.041h-2.822zm26 8.101h-2.822l1.327-8.041c.165.016.328.041.495.041.342 0 .677-.035 1-.101zm-1-10c-.057 0-.112-.011-.169-.014l.043-.259c.344-1.718-.013-3.719-1.31-5.345.436-.241.921-.382 1.436-.382 1.654 0 3 1.346 3 3s-1.346 3-3 3zm30-4h-25.101c-.465-2.279-2.484-4-4.899-4-1.068 0-2.102.354-2.954.979-.501-.346-1.065-.656-1.71-.909l-.177-.07h-2.159v-2.263c1.693-.438 3.17-1.412 4.235-2.737h.765c2.757 0 5-2.243 5-5s-2.243-5-5-5h-.765c-1.081-1.345-2.587-2.328-4.312-2.756-.318-2.068-1.889-3.728-3.924-4.143v-10.101h42v35c.001.552-.447 1-.999 1z" fill="#000000" data-original="#000000" style="" class=""/><path d="m21 5h2v2h-2z" fill="#000000" data-original="#000000" style="" class=""/><path d="m29 5h2v2h-2z" fill="#000000" data-original="#000000" style="" class=""/><path d="m25 5h2v2h-2z" fill="#000000" data-original="#000000" style="" class=""/><path d="m23 16c0 .551-.448 1-1 1h-1v2h1c.552 0 1 .449 1 1 0 1.654 1.346 3 3 3h1v-2h-1c-.552 0-1-.449-1-1 0-.771-.301-1.468-.78-2 .48-.532.78-1.229.78-2 0-.551.448-1 1-1h1v-2h-1c-1.654 0-3 1.346-3 3z" fill="#000000" data-original="#000000" style="" class=""/><path d="m57 28c0-1.654-1.346-3-3-3h-1v2h1c.552 0 1 .449 1 1 0 .771.301 1.468.78 2-.48.532-.78 1.229-.78 2 0 .551-.448 1-1 1h-1v2h1c1.654 0 3-1.346 3-3 0-.551.448-1 1-1h1v-2h-1c-.552 0-1-.449-1-1z" fill="#000000" data-original="#000000" style="" class=""/><path d="m29 13h22v2h-22z" fill="#000000" data-original="#000000" style="" class=""/><path d="m29 17h22v2h-22z" fill="#000000" data-original="#000000" style="" class=""/><path d="m29 21h22v2h-22z" fill="#000000" data-original="#000000" style="" class=""/><path d="m35 25h16v2h-16z" fill="#000000" data-original="#000000" style="" class=""/><path d="m35 29h16v2h-16z" fill="#000000" data-original="#000000" style="" class=""/><path d="m35 33h16v2h-16z" fill="#000000" data-original="#000000" style="" class=""/><path d="m43.228 40h8.544v2.001h-8.544z" transform="matrix(.351 -.936 .936 .351 -7.578 71.061)" fill="#000000" data-original="#000000" style="" class=""/><path d="m50.293 38.707 2.293 2.293-2.293 2.293 1.414 1.414 3.707-3.707-3.707-3.707z" fill="#000000" data-original="#000000" style="" class=""/><path d="m42.293 37.293-3.707 3.707 3.707 3.707 1.414-1.414-2.293-2.293 2.293-2.293z" fill="#000000" data-original="#000000" style="" class=""/><path d="m25 49h-14v10h14zm-2 8h-10v-6h10z" fill="#000000" data-original="#000000" style="" class=""/></g></g></g></svg>
