<?xml version="1.0"?>
<svg xmlns="http://www.w3.org/2000/svg" xmlns:xlink="http://www.w3.org/1999/xlink" xmlns:svgjs="http://svgjs.com/svgjs" version="1.1" width="512" height="512" x="0" y="0" viewBox="0 0 512 512" style="enable-background:new 0 0 512 512" xml:space="preserve" class=""><g><g xmlns="http://www.w3.org/2000/svg"><g><path d="m237.692 355.398h18.308v-18.308c0-24.294-19.694-43.988-43.988-43.988h-14.308c-2.209 0-4 1.791-4 4v14.308c0 24.294 19.694 43.988 43.988 43.988z" fill="#d7e057" data-original="#b3e59f" style=""/><g><path d="m250.954 361.096-26.12-23.127c-3.148-2.787-3.44-7.597-.653-10.744 2.786-3.148 7.597-3.44 10.744-.653l26.12 23.127c3.148 2.787 3.44 7.597.653 10.744-2.794 3.157-7.608 3.43-10.744.653z" fill="#78c2a4" data-original="#78c2a4" style=""/></g></g><g><path d="m274.308 401.067h-18.308v-18.308c0-24.294 19.694-43.988 43.988-43.988h14.308c2.209 0 4 1.791 4 4v14.308c0 24.294-19.694 43.988-43.988 43.988z" fill="#d7e057" data-original="#b3e59f" style=""/><g><path d="m250.301 406.112c-2.787-3.148-2.494-7.957.653-10.744l26.121-23.127c3.146-2.787 7.956-2.495 10.744.653 2.787 3.148 2.495 7.957-.653 10.744l-26.121 23.127c-3.135 2.778-7.948 2.505-10.744-.653z" fill="#78c2a4" data-original="#78c2a4" style=""/></g></g><g><path d="m237.692 461.959h18.308v-18.309c0-24.294-19.694-43.988-43.988-43.988h-14.308c-2.209 0-4 1.791-4 4v14.308c0 24.295 19.694 43.989 43.988 43.989z" fill="#d7e057" data-original="#b3e59f" style=""/><g><path d="m250.954 467.657-26.12-23.127c-3.148-2.787-3.44-7.597-.653-10.744 2.786-3.148 7.597-3.44 10.744-.653l26.12 23.127c3.148 2.787 3.44 7.597.653 10.744-2.794 3.157-7.608 3.43-10.744.653z" fill="#78c2a4" data-original="#78c2a4" style=""/></g></g><g><path d="m256 512c-4.204 0-7.611-3.407-7.611-7.611v-231.963c0-4.204 3.408-7.611 7.611-7.611 4.204 0 7.612 3.407 7.612 7.611v231.962c-.001 4.205-3.408 7.612-7.612 7.612z" fill="#78c2a4" data-original="#78c2a4" style=""/></g><g><g><path d="m397.533 447.191h18.308v-18.308c0-24.294-19.694-43.988-43.988-43.988h-14.308c-2.209 0-4 1.791-4 4v14.308c0 24.294 19.694 43.988 43.988 43.988z" fill="#d7e057" data-original="#b3e59f" style=""/><g><path d="m410.459 452.574-26.212-26.212c-2.972-2.973-2.972-7.792 0-10.765 2.973-2.971 7.792-2.971 10.765 0l26.212 26.212c2.972 2.973 2.972 7.792 0 10.765s-7.791 2.971-10.765 0z" fill="#78c2a4" data-original="#78c2a4" style=""/></g></g><g><g><path d="m415.841 512c-4.204 0-7.612-3.407-7.612-7.611v-94.575c0-4.204 3.407-7.611 7.612-7.611 4.204 0 7.612 3.407 7.612 7.611v94.575c0 4.204-3.407 7.611-7.612 7.611z" fill="#78c2a4" data-original="#78c2a4" style=""/></g></g><g><path d="m434.15 409.814h-18.308v-18.308c0-24.294 19.694-43.988 43.988-43.988h14.308c2.209 0 4 1.791 4 4v14.308c-.001 24.294-19.695 43.988-43.988 43.988z" fill="#d7e057" data-original="#b3e59f" style=""/><g><path d="m410.143 414.859c-2.787-3.148-2.495-7.957.653-10.744l26.121-23.127c3.146-2.788 7.956-2.495 10.744.653 2.787 3.148 2.495 7.957-.653 10.744l-26.121 23.127c-3.136 2.779-7.948 2.505-10.744-.653z" fill="#78c2a4" data-original="#78c2a4" style=""/></g></g></g><g><g><path d="m114.467 447.191h-18.308v-18.308c0-24.294 19.694-43.988 43.988-43.988h14.308c2.209 0 4 1.791 4 4v14.308c0 24.294-19.694 43.988-43.988 43.988z" fill="#d7e057" data-original="#b3e59f" style=""/><g><path d="m96.159 454.803c1.947 0 3.896-.743 5.382-2.229l26.212-26.212c2.972-2.973 2.972-7.792 0-10.765-2.973-2.971-7.792-2.971-10.765 0l-26.212 26.212c-2.972 2.973-2.972 7.792 0 10.765 1.487 1.485 3.435 2.229 5.383 2.229z" fill="#78c2a4" data-original="#78c2a4" style=""/></g></g><g><g><path d="m96.159 512c4.204 0 7.612-3.407 7.612-7.611v-94.575c0-4.204-3.407-7.611-7.612-7.611-4.204 0-7.611 3.407-7.611 7.611v94.575c-.001 4.204 3.406 7.611 7.611 7.611z" fill="#78c2a4" data-original="#78c2a4" style=""/></g></g><g><path d="m77.85 409.814h18.308v-18.308c0-24.294-19.694-43.988-43.988-43.988h-14.308c-2.209 0-4 1.791-4 4v14.308c0 24.294 19.694 43.988 43.988 43.988z" fill="#d7e057" data-original="#b3e59f" style=""/><g><path d="m96.156 417.425c2.104 0 4.197-.867 5.702-2.566 2.787-3.148 2.494-7.957-.653-10.744l-26.121-23.127c-3.146-2.788-7.956-2.495-10.744.653-2.787 3.148-2.495 7.957.653 10.744l26.121 23.127c1.447 1.283 3.248 1.913 5.042 1.913z" fill="#78c2a4" data-original="#78c2a4" style=""/></g></g></g><path d="m256 272.426c-19.617 0-35.52-15.903-35.52-35.52v-10.149h71.041v10.149c-.001 19.617-15.904 35.52-35.521 35.52z" fill="#8b818e" data-original="#8b818e" style=""/><path d="m261.074 226.757v10.149c0 14.169-8.298 26.396-20.297 32.097 4.615 2.192 9.774 3.423 15.223 3.423 19.617 0 35.52-15.903 35.52-35.52v-10.149z" fill="#756e78" data-original="#756e78" style=""/><path d="m350.005 94.004c0-50.837-40.353-92.248-90.775-93.95-52.737-1.78-97.156 41.042-97.234 93.809-.045 30.634 14.565 57.856 37.207 75.049 15.563 11.817 24.931 30.043 24.931 49.584v.582h63.732v-.582c0-19.569 9.419-37.785 24.995-49.633 22.571-17.169 37.144-44.311 37.144-74.859z" fill="#f7e782" data-original="#f7e782" style=""/><g><path d="m314.428 20.366c12.74 16.042 20.354 36.338 20.354 58.415 0 9.735-1.48 19.124-4.227 27.954-6.655 21.395-19.142 28.732-32.917 46.906-2.7 3.562-5.599 7.731-8.523 12.571-14.038 23.237-39.009 37.643-66.157 37.643h-.615c1.171 4.738 1.792 9.645 1.792 14.641v.582h63.732v-.582c0-19.569 9.419-37.785 24.995-49.633 22.572-17.169 37.144-44.312 37.144-74.86-.001-29.833-13.903-56.416-35.578-73.637z" fill="#f4dd46" data-original="#f4dd46" style="" class=""/></g><path d="m298.61 60.397c-19.298 0-34.999 15.701-34.999 35v.832h-15.223c.506-19.608-15.43-35.833-34.999-35.833-14.076 0-25.527 11.452-25.527 25.528 0 14.075 11.451 25.527 25.527 25.527h19.776v100.081c0 4.204 3.408 7.611 7.612 7.611s7.611-3.407 7.611-7.611v-100.079h15.223v100.081c0 4.204 3.407 7.611 7.611 7.611s7.612-3.407 7.612-7.611v-100.081h19.777c14.075 0 25.527-11.452 25.527-25.527.001-14.077-11.451-25.529-25.528-25.529zm-85.221 35.833c-5.682 0-10.304-4.622-10.304-10.304s4.622-10.305 10.304-10.305c11.121 0 20.29 9.402 19.776 20.609zm85.222 0h-19.777c-.338-11.175 8.488-20.609 19.777-20.609 5.682 0 10.304 4.623 10.304 10.305.001 5.681-4.622 10.304-10.304 10.304z" fill="#f9efaf" data-original="#f9efaf" style=""/><g><path d="m451 512h-390c-4.204 0-7.611-3.407-7.611-7.611s3.408-7.612 7.611-7.612h390c4.204 0 7.612 3.407 7.612 7.612s-3.408 7.611-7.612 7.611z" fill="#ce9775" data-original="#ce9775" style=""/></g><path d="m291.52 241.98h-71.04c-8.408 0-15.223-6.816-15.223-15.223 0-8.407 6.816-15.223 15.223-15.223h71.041c8.408 0 15.223 6.816 15.223 15.223-.001 8.408-6.816 15.223-15.224 15.223z" fill="#d7e057" data-original="#b3e59f" style=""/><path d="m291.52 211.534h-30.446c8.407 0 15.223 6.816 15.223 15.223s-6.816 15.223-15.223 15.223h30.446c8.407 0 15.223-6.816 15.223-15.223s-6.815-15.223-15.223-15.223z" fill="#95d6a4" data-original="#95d6a4" style=""/></g></g></svg>
