<?xml version="1.0" encoding="iso-8859-1"?>
<!-- Generator: Adobe Illustrator 19.0.0, SVG Export Plug-In . SVG Version: 6.00 Build 0)  -->
<svg version="1.1" id="Layer_1" xmlns="http://www.w3.org/2000/svg" xmlns:xlink="http://www.w3.org/1999/xlink" x="0px" y="0px"
	 viewBox="0 0 512 512" style="enable-background:new 0 0 512 512;" xml:space="preserve">
<path style="fill:#47821C;" d="M8.947,309.628c2.735-5.803,9.057-9.009,15.355-7.787c32.473,6.296,66.997,22.41,102.611,47.894
	c27.931,19.986,56.691,45.812,85.481,76.76c0.228,0.245,0.452,0.489,0.679,0.734h-97.325c-9.586-10.639-18.719-20.377-27.1-29.061
	c-42.577-44.109-75.611-71.47-75.938-71.74C7.762,322.348,6.213,315.43,8.947,309.628z"/>
<path style="fill:#4E901E;" d="M31.411,205.472c3.883-5.107,10.734-6.928,16.639-4.422c30.453,12.915,60.868,35.86,90.401,68.196
	c23.161,25.36,45.918,56.605,67.639,92.866c14.166,23.65,25.974,46.197,35.193,65.117H155.36
	c-21.473-46.557-45.252-87.88-64.414-118.572c-32.467-52.003-59.085-85.638-59.349-85.97
	C27.606,217.665,27.529,210.577,31.411,205.472z"/>
<path style="fill:#5EAC24;" d="M85.789,126.161c4.746-4.317,11.812-4.864,17.165-1.328c27.602,18.23,53.345,46.314,76.517,83.476
	c18.172,29.144,34.878,64.001,49.654,103.603c18.858,50.543,29.609,95.304,33.953,115.317h-82.56
	c-12.849-73.029-36.419-141.872-54.917-188.788c-22.486-57.034-42.555-94.943-42.754-95.317
	C79.832,137.462,81.044,130.477,85.789,126.161z"/>
<path style="fill:#6DC82A;" d="M206.209,427.145c0.002-0.497,0.029-0.986,0.081-1.469c4.802-82.815-5.741-166.033-15.448-221.327
	c-10.59-60.328-22.511-101.427-22.63-101.834c-1.796-6.141,0.687-12.754,6.031-16.06c5.345-3.307,12.185-2.463,16.616,2.051
	c22.845,23.271,42.045,55.845,57.066,96.816c11.781,32.133,21.078,69.582,27.631,111.308c10.976,69.873,10.541,127.261,10.5,130.88
	L206.209,427.145z"/>
<path style="fill:#4E901E;" d="M503.053,309.628c-2.735-5.803-9.057-9.009-15.355-7.787c-32.473,6.296-66.997,22.41-102.611,47.894
	c-27.931,19.986-56.691,45.812-85.481,76.76c-0.228,0.245-0.452,0.489-0.679,0.734h97.325c9.586-10.639,18.719-20.377,27.1-29.061
	c42.577-44.109,75.611-71.47,75.938-71.74C504.237,322.348,505.787,315.43,503.053,309.628z"/>
<path style="fill:#5EAC24;" d="M480.589,205.472c-3.883-5.107-10.734-6.928-16.639-4.422c-30.453,12.915-60.868,35.86-90.401,68.196
	c-23.161,25.36-45.918,56.605-67.639,92.866c-14.166,23.65-25.974,46.197-35.193,65.117h85.922
	c21.473-46.557,45.252-87.88,64.414-118.572c32.467-52.003,59.085-85.638,59.349-85.97
	C484.394,217.665,484.471,210.577,480.589,205.472z"/>
<path style="fill:#6DC82A;" d="M426.212,126.161c-4.746-4.317-11.812-4.864-17.165-1.328c-27.602,18.23-53.346,46.314-76.517,83.476
	c-18.172,29.144-34.878,64.001-49.654,103.603c-18.858,50.543-29.609,95.304-33.953,115.317h82.56
	c12.849-73.029,36.419-141.872,54.917-188.788c22.486-57.034,42.555-94.943,42.754-95.317
	C432.168,137.462,430.956,130.477,426.212,126.161z"/>
<path style="fill:#91DC5A;" d="M307.304,427.228c0-0.497-0.026-0.986-0.076-1.469c-4.549-82.835,6.689-166.005,16.935-221.255
	c11.179-60.279,23.637-101.323,23.76-101.728c1.877-6.133-0.648-12.757-6.129-16.088c-5.483-3.331-12.524-2.518-17.103,1.975
	c-23.611,23.166-43.517,55.651-59.163,96.555c-12.272,32.078-22.012,69.485-28.95,111.18
	c-11.621,69.823-11.443,127.211-11.42,130.831h82.145V427.228z"/>
<g>
	<path style="fill:#5EAC24;" d="M279.06,282.59c-0.396,0-0.798-0.03-1.202-0.095c-4.148-0.658-6.975-4.555-6.316-8.703
		c3.62-22.796,6.991-36.936,7.133-37.527c0.98-4.083,5.084-6.596,9.166-5.62c4.083,0.979,6.6,5.083,5.622,9.166
		c-0.032,0.14-3.383,14.21-6.902,36.367C285.966,279.921,282.734,282.59,279.06,282.59z"/>
	<path style="fill:#5EAC24;" d="M270.716,397.043c-4.119,0-7.503-3.29-7.599-7.428c-0.594-25.769,0.707-53.348,3.868-81.97
		c0.461-4.172,4.22-7.174,8.393-6.724c4.174,0.461,7.184,4.219,6.724,8.393c-3.088,27.954-4.361,54.853-3.781,79.95
		c0.097,4.198-3.228,7.68-7.426,7.777C270.835,397.042,270.775,397.043,270.716,397.043z"/>
</g>
<path d="M28.899,419.625h-13.18c-4.199,0-7.604,3.403-7.604,7.604s3.404,7.604,7.604,7.604h13.18c4.199,0,7.604-3.403,7.604-7.604
	S33.098,419.625,28.899,419.625z"/>
<path d="M495.615,419.625h-29.749c-4.2,0-7.604,3.403-7.604,7.604s3.403,7.604,7.604,7.604h29.749c4.2,0,7.604-3.403,7.604-7.604
	S499.815,419.625,495.615,419.625z"/>
<path d="M509.931,306.387c-4.223-8.957-13.958-13.901-23.679-12.012c-19.742,3.827-40.243,11.165-61.203,21.886
	c29.326-47.098,55.604-81.421,56.079-82.037c3.334-4.412,5.212-6.784,5.229-6.806c6.16-7.751,6.278-18.668,0.285-26.55
	c-5.994-7.884-16.546-10.692-25.659-6.82c-22.152,9.394-44.233,23.893-65.929,43.208c21.605-54.219,40.623-90.199,40.814-90.561
	c4.654-8.74,2.787-19.497-4.538-26.16c-7.323-6.663-18.21-7.505-26.474-2.049c-25.234,16.666-48.887,41.186-70.451,72.996
	c10.247-51.647,20.677-86.116,20.789-86.482c2.897-9.467-0.796-20.003-9.451-24.811c-10.831-6.015-22.17-0.801-26.377,3.046
	c-35.738,32.675-62.113,102.385-62.693,103.958c-0.533-1.506-29.82-74.576-60.387-104.014c-7.136-6.873-17.65-8.386-26.043-3.191
	c-8.247,5.102-12.083,15.242-9.329,24.66c0.114,0.388,11.008,37.994,21.163,93.876c-22.758-35.114-47.942-61.93-74.932-79.755
	c-8.262-5.46-19.148-4.615-26.473,2.049c-7.324,6.662-9.191,17.42-4.513,26.209c0.39,0.72,20.136,37.483,41.821,91.405
	c-22.027-19.774-44.459-34.558-66.96-44.101c-9.116-3.867-19.668-1.063-25.661,6.821c-5.993,7.881-5.874,18.798,0.286,26.549
	c0.263,0.331,36.711,47.169,60.716,88.277c-20.753-10.556-41.057-17.809-60.611-21.6c-9.721-1.895-19.459,3.053-23.68,12.01
	c-4.222,8.955-1.835,19.609,5.798,25.904c0.327,0.271,33.234,27.568,75.31,71.16c5.123,5.307,10.235,10.719,15.301,16.176H54.92
	c-4.199,0-7.604,3.403-7.604,7.604s3.404,7.604,7.604,7.604h60.829h0.001c0,0,8.184,0.279,7.774-7.322
	c-0.338-6.263-20.121-25.003-29.405-34.624c-42.731-44.277-76.233-72.047-76.572-72.326c-2.267-1.871-2.976-5.032-1.723-7.691
	c1.253-2.657,4.143-4.129,7.029-3.565c25.196,4.885,51.918,16.031,79.433,33.114c17.256,29.558,32.729,59.138,46.167,88.276
	c1.243,2.693,3.938,4.418,6.905,4.418h23.082c2.183,0,4.26-0.938,5.704-2.575s2.114-3.817,1.84-5.982
	C168.269,286.38,90.317,141.232,89.558,139.832c-1.381-2.594-0.826-5.787,1.348-7.765c2.175-1.978,5.431-2.266,7.857-0.609
	c47.742,32.61,76.806,78.571,90.097,108.554c7.565,52.066,13.677,118.721,9.848,185.061c-0.066,0.678-0.625,9.438,7.466,9.673
	l125.31,0.084c3.691,0,6.85-2.65,7.489-6.286c10.3-58.539,27.605-114.371,43.199-157.418c27.835-29.805,56.342-51.033,84.748-63.079
	c2.703-1.148,5.837-0.315,7.615,2.024c1.779,2.341,1.745,5.581-0.082,7.88c-0.019,0.022-84.287,107.149-123.112,206.446
	c-0.92,2.351-0.655,4.999,0.759,7.09c1.414,2.092,3.774,3.344,6.298,3.344h80.431c4.2,0,7.604-3.403,7.604-7.604
	c0-4.2-3.403-7.604-7.604-7.604h-25.309c5.063-5.452,10.174-10.864,15.301-16.176c41.953-43.463,74.985-70.891,75.304-71.155
	C511.765,325.996,514.153,315.341,509.931,306.387z M130.549,272.172c0.171,0.185,0.35,0.359,0.534,0.522
	c16.065,44.315,31.286,95.915,38.658,147.213h-9.529c-17.756-37.985-38.875-76.649-62.816-114.995
	c-32.828-52.581-59.582-86.342-59.846-86.675c-1.829-2.301-1.863-5.542-0.085-7.881c1.779-2.341,4.91-3.172,7.617-2.025
	C73.731,220.483,102.487,241.961,130.549,272.172z M198.332,203.034c-10.7-60.956-22.702-102.245-22.821-102.653
	c-0.841-2.876,0.283-5.944,2.733-7.46c2.306-1.423,5.262-1.052,7.189,0.911c22.084,22.495,40.707,54.158,55.353,94.106
	c2.716,7.408,5.328,15.218,7.78,23.219c-26.53,84.204-30.659,190.003-30.955,208.434l-3.382-0.015
	C218.173,338.19,207.845,257.228,198.332,203.034z M232.819,419.625c0.293-18.075,1.973-66.181,11.26-121.979
	c6.857-41.197,16.463-78.11,28.552-109.712c15.253-39.875,34.561-71.448,57.388-93.844c1.208-1.185,4.219-2.85,7.829-0.904
	c2.587,1.394,3.665,4.554,2.804,7.372c-0.127,0.415-12.751,42.1-23.963,102.56c-10.043,54.155-21.051,135.086-17.379,216.507
	L232.819,419.625L232.819,419.625z M325.129,419.625h-10.591c-3.129-67.788,4.153-135.419,12.477-187.051
	c0.214-0.284,41.773-78.389,86.219-101.396c2.613-1.352,5.685-1.371,7.859,0.608s2.727,5.171,1.345,7.767
	C422.239,139.934,357.385,245.177,325.129,419.625z M494.442,320.569c-1.37,1.132-34.023,28.247-76.564,72.319
	c-8.426,8.729-16.827,17.713-25.005,26.738h-23.087c11.203-26.132,25.104-52.479,39.25-76.79v-0.001
	c27.754-17.323,54.706-28.604,80.111-33.529c2.878-0.557,5.774,0.906,7.028,3.567C497.428,315.529,496.719,318.691,494.442,320.569z
	"/>
<g>
</g>
<g>
</g>
<g>
</g>
<g>
</g>
<g>
</g>
<g>
</g>
<g>
</g>
<g>
</g>
<g>
</g>
<g>
</g>
<g>
</g>
<g>
</g>
<g>
</g>
<g>
</g>
<g>
</g>
</svg>
