<svg id="Layer_1" enable-background="new 0 0 256 256" height="512" viewBox="0 0 256 256" width="512" xmlns="http://www.w3.org/2000/svg"><g><g><g><path d="m212.5 251.75h-169c-5.523 0-10-4.477-10-10v-227.5c0-5.523 4.477-10 10-10h169c5.523 0 10 4.477 10 10v227.5c0 5.523-4.477 10-10 10z" fill="#afafaf"/></g><g><path d="m44.5 40.75h167v185.58h-167z" fill="#fc5d3d"/></g><g><path d="m44.5 15.25h167v25.5h-167z" fill="#f0c020"/></g><g><path d="m198.333 215.962h-125.538c-1.381 0-2.5-1.119-2.5-2.5s1.119-2.5 2.5-2.5h123.038v-155.962c0-1.381 1.119-2.5 2.5-2.5s2.5 1.119 2.5 2.5v158.462c0 1.381-1.119 2.5-2.5 2.5zm-135.538 0h-7.129c-1.381 0-2.5-1.119-2.5-2.5s1.119-2.5 2.5-2.5h7.129c1.381 0 2.5 1.119 2.5 2.5s-1.119 2.5-2.5 2.5z" fill="#ffcbc2"/></g></g><g><g><path d="m187.952 142.483c2.216-9.161 2.354-19.247 0-28.965h-9.258c-1.116-3.91-2.671-7.63-4.611-11.115l6.556-6.551c-5.102-8.342-12.149-15.389-20.491-20.491l-6.551 6.556c-3.485-1.94-7.206-3.495-11.115-4.611v-9.258c-9.201-2.226-19.288-2.344-28.965 0v9.258c-3.91 1.116-7.63 2.671-11.115 4.611l-6.551-6.556c-8.341 5.102-15.388 12.149-20.49 20.49l6.556 6.551c-1.94 3.485-3.495 7.206-4.611 11.115h-9.258c-2.236 9.237-2.334 19.324 0 28.965h9.258c1.116 3.91 2.671 7.63 4.611 11.115l-6.556 6.551c5.102 8.342 12.149 15.389 20.491 20.491l6.551-6.555c3.485 1.939 7.206 3.495 11.115 4.611v9.258c9.201 2.226 19.288 2.344 28.965 0v-9.258c3.91-1.116 7.63-2.671 11.115-4.611l6.551 6.555c8.342-5.102 15.388-12.149 20.491-20.491l-6.556-6.551c1.94-3.485 3.495-7.206 4.611-11.115h9.257z" fill="#efefef"/></g><g><circle cx="128" cy="128" fill="#72c1e8" r="40.429"/></g><g><circle cx="33.5" cy="56.46" r="2.5"/><path d="m212.5 1.75h-169c-6.89 0-12.5 5.609-12.5 12.5v32.21c0 1.38 1.12 2.5 2.5 2.5s2.5-1.12 2.5-2.5v-.01-32.2c.01-4.13 3.37-7.49 7.5-7.5h169c4.13.01 7.49 3.37 7.5 7.5v227.5c-.01 4.13-3.37 7.49-7.5 7.5h-169c-4.13-.01-7.49-3.37-7.5-7.5v-175.29c0-1.37-1.12-2.5-2.5-2.5s-2.5 1.13-2.5 2.5v175.29c0 6.89 5.61 12.5 12.5 12.5h169c6.89 0 12.5-5.61 12.5-12.5v-227.5c0-6.891-5.61-12.5-12.5-12.5z"/><path d="m214 15.25c0-1.355-1.104-2.5-2.5-2.5-3.479 0-163.402 0-167 0-1.444 0-2.5 1.212-2.5 2.5v211.08c0 1.389 1.116 2.5 2.5 2.5h167c1.384 0 2.5-1.111 2.5-2.5v-29.16c0-1.38-1.12-2.5-2.5-2.5s-2.5 1.12-2.5 2.5v26.66h-162v-180.58h162v133.92c0 1.37 1.12 2.5 2.5 2.5s2.5-1.13 2.5-2.5c0-5.237 0-149.872 0-161.92zm-167 23v-20.5h32.176l6.295 20.5zm43.701 0-6.295-20.5h124.594v20.5z"/><circle cx="211.5" cy="187.17" r="2.5"/><path d="m120 236.542c-1.381 0-2.5 1.119-2.5 2.5s1.119 2.5 2.5 2.5h16c1.381 0 2.5-1.119 2.5-2.5s-1.119-2.5-2.5-2.5z"/><path d="m195.67 25.17h-8.34c-1.37 0-2.5 1.12-2.5 2.5s1.13 2.5 2.5 2.5h8.34c1.38 0 2.5-1.12 2.5-2.5s-1.12-2.5-2.5-2.5z"/><path d="m71.83 25.5h-16.16c-1.38 0-2.5 1.12-2.5 2.5s1.12 2.5 2.5 2.5h16.16c1.38 0 2.5-1.12 2.5-2.5s-1.12-2.5-2.5-2.5z"/><path d="m187.96 144.979c1.15 0 2.15-.79 2.42-1.91 2.39-9.839 2.384-20.342 0-30.14-.27-1.12-1.27-1.91-2.42-1.91h-7.41c-.9-2.8-2.04-5.54-3.39-8.16l5.25-5.25c.82-.81.97-2.079.36-3.069-5.29-8.65-12.66-16.021-21.32-21.311-.96-.59-2.27-.43-3.07.36l-5.24 5.25c-2.62-1.35-5.37-2.49-8.16-3.39v-7.4c0-1.16-.79-2.16-1.91-2.44-9.78-2.359-20.37-2.359-30.14 0-1.12.28-1.91 1.28-1.91 2.44v7.4c-2.8.899-5.54 2.04-8.16 3.38l-5.24-5.24c-.8-.79-2.11-.95-3.08-.36-8.65 5.29-16.02 12.66-21.31 21.311-.61.99-.46 2.26.36 3.069l5.25 5.25c-1.35 2.62-2.49 5.37-3.39 8.16h-7.41c-1.15 0-2.15.79-2.42 1.91-2.385 9.799-2.39 20.32 0 30.14.27 1.12 1.27 1.91 2.42 1.91h7.41c.9 2.79 2.04 5.54 3.39 8.16l-5.25 5.24c-.82.82-.97 2.09-.36 3.08 5.29 8.649 12.66 16.02 21.31 21.31.97.59 2.28.431 3.08-.37l5.24-5.239c2.62 1.35 5.36 2.489 8.16 3.39v7.4c0 1.159.79 2.159 1.91 2.43 9.854 2.372 20.275 2.375 30.14 0 1.12-.271 1.91-1.271 1.91-2.43v-7.4c2.79-.9 5.54-2.04 8.16-3.39l5.24 5.239c.8.801 2.11.96 3.07.37 1.24-.75 2.47-1.569 3.67-2.42 1.13-.8 1.39-2.359.59-3.49-.77-1.079-2.4-1.359-3.48-.59-.57.41-1.15.8-1.73 1.181l-5.14-5.131c-.77-.779-2.02-.949-2.98-.42-3.35 1.87-6.91 3.341-10.59 4.391-1.06.31-1.81 1.29-1.81 2.41v7.25c-7.84 1.609-16.15 1.609-23.96 0v-7.25c0-1.12-.75-2.101-1.81-2.41-3.68-1.05-7.24-2.521-10.59-4.391-.96-.529-2.21-.359-2.99.42l-5.13 5.131c-6.69-4.4-12.55-10.261-16.95-16.95l5.13-5.141c.79-.779.96-2.01.42-2.979-1.87-3.35-3.34-6.91-4.39-10.58-.31-1.07-1.29-1.82-2.41-1.82h-7.25c-1.648-7.953-1.606-16.207 0-23.96h7.25c1.11 0 2.1-.75 2.41-1.819 1.04-3.67 2.52-7.23 4.39-10.58.54-.971.37-2.2-.42-2.98l-5.13-5.14c4.4-6.69 10.26-12.55 16.95-16.95l5.14 5.13c.77.771 2.02.95 2.98.42 3.35-1.87 6.91-3.35 10.59-4.39 1.06-.311 1.81-1.3 1.81-2.41v-7.25c7.79-1.61 16.12-1.62 23.96 0v7.25c0 1.11.75 2.1 1.81 2.41 3.68 1.04 7.24 2.52 10.59 4.39.96.53 2.21.351 2.98-.42l5.14-5.13c6.69 4.4 12.55 10.26 16.95 16.95l-5.13 5.14c-.79.78-.96 2.01-.42 2.98 1.87 3.35 3.35 6.91 4.39 10.58.31 1.069 1.29 1.819 2.41 1.819h7.25c1.57 7.558 1.683 15.835 0 23.96h-7.25c-1.12 0-2.11.75-2.41 1.82-1.04 3.67-2.52 7.23-4.39 10.58-.54.97-.37 2.2.42 2.979l5.13 5.141c-.51.79-1.06 1.58-1.62 2.35-.833 1.125-.55 2.704.54 3.49 1.08.79 2.71.53 3.5-.55 1.01-1.391 1.99-2.851 2.9-4.33.61-.99.46-2.26-.36-3.08l-5.25-5.24c1.35-2.62 2.49-5.37 3.39-8.16h7.41z"/><path d="m173.08 173.67c.98-.97.99-2.561.03-3.54-.94-.95-2.59-.96-3.54-.021-.98.971-.99 2.551-.02 3.54.975.976 2.536.994 3.53.021z"/><path d="m95.59 103.689c-1.11-.729-2.72-.399-3.45.71h-.01c-4.62 7.021-7.06 15.17-7.06 23.601 0 23.702 19.194 42.93 42.93 42.93 23.703 0 42.93-19.195 42.93-42.93 0-23.662-19.135-42.931-42.94-42.931-7.1 0-14.15 1.78-20.37 5.141-1.21.649-1.66 2.17-1.01 3.38.63 1.18 2.21 1.66 3.39 1.02.862-.466 1.748-.885 2.643-1.282-3.852 4.707-6.853 11.181-8.618 18.766h-10.458c.788-1.702 1.701-3.351 2.743-4.933.758-1.181.431-2.711-.72-3.472zm-2.035 40.218h10.47c1.769 7.598 4.777 14.082 8.64 18.791-8.435-3.733-15.247-10.443-19.11-18.791zm14.614-26.814h17.331v21.814h-17.331c-1.219-7.148-1.219-14.665 0-21.814zm22.331-26.722c7.116 1.646 13.244 10.182 16.256 21.722h-16.256zm17.331 26.722c1.219 7.148 1.219 14.665 0 21.814h-17.331v-21.814zm16.51 21.814h-11.403c1.076-7.094 1.076-14.721 0-21.814h11.403c2.118 7.083 2.12 14.723 0 21.814zm-33.841 26.722v-21.722h16.256c-3.012 11.54-9.14 20.076-16.256 21.722zm-5-21.722v21.722c-7.116-1.646-13.244-10.182-16.256-21.722zm17.835 18.791c3.862-4.709 6.871-11.192 8.639-18.791h10.47c-3.849 8.319-10.647 15.045-19.109 18.791zm19.11-50.605h-10.47c-1.769-7.599-4.778-14.083-8.641-18.792 8.453 3.74 15.256 10.461 19.111 18.792zm-36.945-21.722v21.722h-16.256c3.012-11.54 9.14-20.076 16.256-21.722zm-22.438 26.722c-1.076 7.094-1.076 14.721 0 21.814h-11.403c-2.052-6.864-2.187-14.499.007-21.814z"/><path d="m102.38 100.03c1.068-.982 1.028-2.574.15-3.53-.9-.98-2.56-1.05-3.53-.15-1.012.911-1.096 2.511-.16 3.53.888.981 2.482 1.117 3.54.15z"/></g></g></g></svg>