<?xml version="1.0"?>
<svg xmlns="http://www.w3.org/2000/svg" xmlns:xlink="http://www.w3.org/1999/xlink" xmlns:svgjs="http://svgjs.com/svgjs" version="1.1" width="512" height="512" x="0" y="0" viewBox="0 0 512 512" style="enable-background:new 0 0 512 512" xml:space="preserve" class=""><g><path xmlns="http://www.w3.org/2000/svg" d="m470.89 101.86h-71.53l-.06.3v307.99l71.59-.01.06-.3v-307.68z" fill="#d7e057" data-original="#9ac5a1" style=""/><path xmlns="http://www.w3.org/2000/svg" d="m453.77 440.18v12.13a18.645 18.645 0 0 1 -37.29 0v-12.13z" fill="#6d7486" data-original="#6d7486" style=""/><path xmlns="http://www.w3.org/2000/svg" d="m453.77 59.69v12.13h-37.29v-12.13c0-10.3 6.99-18.64 17.29-18.64h1.36a18.639 18.639 0 0 1 18.64 18.64z" fill="#6d7486" data-original="#6d7486" style=""/><path xmlns="http://www.w3.org/2000/svg" d="m41.11 101.86-.06.3v307.68l.06.3h71.53l.06-.3v-307.68z" fill="#d7e057" data-original="#9ac5a1" style=""/><path xmlns="http://www.w3.org/2000/svg" d="m95.52 440.18v12.13a18.645 18.645 0 0 1 -37.29 0v-12.13z" fill="#6d7486" data-original="#6d7486" style=""/><path xmlns="http://www.w3.org/2000/svg" d="m95.52 59.69v12.13h-37.29v-12.13a18.645 18.645 0 0 1 37.29 0z" fill="#6d7486" data-original="#6d7486" style=""/><path xmlns="http://www.w3.org/2000/svg" d="m112.7 120.43h286.6v277.47h-286.6z" fill="#fbedce" data-original="#fbedce" style="" class=""/><path xmlns="http://www.w3.org/2000/svg" d="m467.9 71.82h-65.54a15.169 15.169 0 0 0 -3 30.04h71.53a15.169 15.169 0 0 0 -2.99-30.04z" fill="#797e37" data-original="#797e37" style=""/><path xmlns="http://www.w3.org/2000/svg" d="m470.89 410.14-71.59.01a15.17 15.17 0 0 0 3.06 30.03h65.54a15.169 15.169 0 0 0 2.99-30.04z" fill="#797e37" data-original="#797e37" style=""/><path xmlns="http://www.w3.org/2000/svg" d="m109.64 71.82h-65.54a15.169 15.169 0 0 0 -2.99 30.04l69.31.28a15.17 15.17 0 0 0 -.78-30.32z" fill="#797e37" data-original="#797e37" style=""/><path xmlns="http://www.w3.org/2000/svg" d="m112.64 410.14h-71.53a15.169 15.169 0 0 0 2.99 30.04h65.54a15.169 15.169 0 0 0 3-30.04z" fill="#797e37" data-original="#797e37" style=""/><path xmlns="http://www.w3.org/2000/svg" d="m71.05 102.16.035-.174-29.975-.126-.06.3v307.68l.06.3h30l-.06-.3z" fill="#d7e057" data-original="#80aa85" style="" class=""/><path xmlns="http://www.w3.org/2000/svg" d="m112.7 120.43h30v277.47h-30z" fill="#e5d4b3" data-original="#e5d4b3" style="" class=""/><path xmlns="http://www.w3.org/2000/svg" d="m58.93 86.99a15.168 15.168 0 0 1 15.17-15.17h-30a15.169 15.169 0 0 0 -2.99 30.04h30a15.154 15.154 0 0 1 -12.18-14.87z" fill="#696b2c" data-original="#696b2c" style=""/><path xmlns="http://www.w3.org/2000/svg" d="m58.93 425.01a15.148 15.148 0 0 1 12.18-14.87h-30a15.169 15.169 0 0 0 2.99 30.04h30a15.168 15.168 0 0 1 -15.17-15.17z" fill="#696b2c" data-original="#696b2c" style=""/><g xmlns="http://www.w3.org/2000/svg" fill="#c1b195"><path d="m249.9 179.956h-96.434a6 6 0 0 1 0-12h96.434a6 6 0 0 1 0 12z" fill="#c1b195" data-original="#c1b195" style=""/><path d="m358.534 221.477h-205.068a6 6 0 0 1 0-12h205.068a6 6 0 0 1 0 12z" fill="#c1b195" data-original="#c1b195" style=""/><path d="m358.534 263h-205.068a6 6 0 0 1 0-12h205.068a6 6 0 0 1 0 12z" fill="#c1b195" data-original="#c1b195" style=""/><path d="m358.534 303.521h-205.068a6 6 0 0 1 0-12h205.068a6 6 0 0 1 0 12z" fill="#c1b195" data-original="#c1b195" style=""/><path d="m358.534 344.044h-205.068a6 6 0 0 1 0-12h205.068a6 6 0 0 1 0 12z" fill="#c1b195" data-original="#c1b195" style=""/></g><path xmlns="http://www.w3.org/2000/svg" d="m69.457 145.705a6 6 0 0 1 -6-6v-7.151a6 6 0 0 1 12 0v7.151a6 6 0 0 1 -6 6z" fill="#f4f8fc" data-original="#f4f8fc" style=""/><path xmlns="http://www.w3.org/2000/svg" d="m69.457 309.552a6 6 0 0 1 -6-6v-143.886a6 6 0 0 1 12 0v143.886a6 6 0 0 1 -6 6z" fill="#f4f8fc" data-original="#f4f8fc" style=""/></g></svg>
