<?xml version="1.0"?>
<svg xmlns="http://www.w3.org/2000/svg" xmlns:xlink="http://www.w3.org/1999/xlink" xmlns:svgjs="http://svgjs.com/svgjs" version="1.1" width="512" height="512" x="0" y="0" viewBox="0 0 453 453.456" style="enable-background:new 0 0 512 512" xml:space="preserve" class=""><g><path xmlns="http://www.w3.org/2000/svg" d="m415.019531 331.996094h-377.582031c-18.894531 0-34.210938-15.3125-34.210938-34.207032v-260.578124c0-18.894532 15.316407-34.214844 34.210938-34.214844h377.578125c18.894531 0 34.210937 15.320312 34.210937 34.214844v260.578124c0 18.894532-15.316406 34.207032-34.207031 34.207032zm0 0" fill="#87796f" data-original="#87796f" style="" class=""/><path xmlns="http://www.w3.org/2000/svg" d="m415.019531 335h-377.582031c-20.515625 0-37.210938-16.695312-37.210938-37.210938v-260.578124c0-20.519532 16.695313-37.210938 37.210938-37.210938h377.578125c20.519531 0 37.210937 16.695312 37.210937 37.210938v260.578124c0 20.515626-16.691406 37.210938-37.207031 37.210938zm-377.582031-329c-17.210938 0-31.210938 14.003906-31.210938 31.210938v260.578124c0 17.207032 14 31.207032 31.210938 31.207032h377.578125c17.210937 0 31.210937-14 31.210937-31.207032v-260.578124c0-17.207032-14.003906-31.210938-31.210937-31.210938zm0 0" fill="#3a312a" data-original="#3a312a" style="" class=""/><path xmlns="http://www.w3.org/2000/svg" d="m142.628906 27.996094h-90.339844c-13.164062 0-23.839843 10.675781-23.839843 23.84375v231.316406c0 13.167969 10.675781 23.839844 23.839843 23.839844h347.875c13.167969 0 23.84375-10.671875 23.84375-23.839844v-231.316406c0-13.167969-10.675781-23.84375-23.84375-23.84375zm0 0" fill="#d7e057" data-original="#d7e057" style="" class=""/><path xmlns="http://www.w3.org/2000/svg" d="m400.164062 310h-347.875c-14.800781 0-26.839843-12.039062-26.839843-26.839844v-231.320312c0-14.796875 12.039062-26.839844 26.839843-26.839844h90.339844c1.660156 0 3 1.34375 3 3s-1.339844 3-3 3h-90.339844c-11.492187 0-20.839843 9.351562-20.839843 20.839844v231.320312c0 11.488282 9.347656 20.839844 20.839843 20.839844h347.875c11.492188 0 20.84375-9.351562 20.84375-20.839844v-231.320312c0-11.488282-9.351562-20.839844-20.84375-20.839844h-230.339843c-1.65625 0-3-1.34375-3-3s1.34375-3 3-3h230.339843c14.800782 0 26.84375 12.042969 26.84375 26.839844v231.320312c0 14.796875-12.042968 26.839844-26.84375 26.839844zm0 0" fill="#3a312a" data-original="#3a312a" style="" class=""/><path xmlns="http://www.w3.org/2000/svg" d="m69.726562 262.726562c0 4.972657 4.03125 9 9 9h295c4.972657 0 9-4.027343 9-9 0-4.96875-4.027343-9-9-9h-295c-4.96875 0-9 4.03125-9 9zm0 0" fill="#8ac6dd" data-original="#8ac6dd" style="" class=""/><path xmlns="http://www.w3.org/2000/svg" d="m373.726562 274.726562h-295c-6.617187 0-12-5.378906-12-12 0-6.617187 5.382813-12 12-12h295c6.621094 0 12 5.382813 12 12 0 6.621094-5.378906 12-12 12zm-295-18c-3.304687 0-6 2.695313-6 6 0 3.308594 2.695313 6 6 6h295c3.308594 0 6-2.691406 6-6 0-3.304687-2.691406-6-6-6zm0 0" fill="#3a312a" data-original="#3a312a" style="" class=""/><path xmlns="http://www.w3.org/2000/svg" d="m93.226562 253.925781v17.609375c0 5.628906 4.566407 10.195313 10.199219 10.195313h1.609375c5.628906 0 10.195313-4.566407 10.195313-10.195313v-17.609375c0-5.632812-4.566407-10.199219-10.195313-10.199219h-1.609375c-5.632812 0-10.199219 4.566407-10.199219 10.199219zm0 0" fill="#eb6e7a" data-original="#eb6e7a" style="" class=""/><path xmlns="http://www.w3.org/2000/svg" d="m105.03125 284.726562h-1.609375c-7.277344 0-13.195313-5.917968-13.195313-13.195312v-17.609375c0-7.277344 5.917969-13.195313 13.195313-13.195313h1.609375c7.277344 0 13.195312 5.917969 13.195312 13.195313v17.609375c0 7.277344-5.917968 13.195312-13.195312 13.195312zm-1.605469-38c-3.96875 0-7.199219 3.230469-7.199219 7.199219v17.609375c0 3.964844 3.230469 7.195313 7.199219 7.195313h1.609375c3.96875 0 7.195313-3.226563 7.195313-7.195313v-17.609375c0-3.96875-3.226563-7.199219-7.195313-7.199219zm0 0" fill="#3a312a" data-original="#3a312a" style="" class=""/><path xmlns="http://www.w3.org/2000/svg" d="m197.601562 331.996094h57.25v71.1875h-57.25zm0 0" fill="#87796f" data-original="#87796f" style="" class=""/><path xmlns="http://www.w3.org/2000/svg" d="m254.851562 406.1875h-57.25c-1.65625 0-3-1.34375-3-3v-71.1875c0-1.65625 1.34375-3 3-3h57.25c1.660157 0 3 1.34375 3 3v71.1875c0 1.65625-1.339843 3-3 3zm-54.246093-6h51.25v-65.1875h-51.25zm0 0" fill="#3a312a" data-original="#3a312a" style="" class=""/><path xmlns="http://www.w3.org/2000/svg" d="m241.132812 449.996094h72.503907c0-25.851563-20.957031-46.8125-46.816407-46.8125h-81.183593c-25.855469 0-46.816407 20.960937-46.816407 46.8125zm0 0" fill="#87796f" data-original="#87796f" style="" class=""/><path xmlns="http://www.w3.org/2000/svg" d="m313.632812 453h-72.5c-1.660156 0-3-1.34375-3-3s1.339844-3 3-3h69.402344c-1.546875-22.765625-20.5625-40.8125-43.714844-40.8125h-81.183593c-23.152344 0-42.164063 18.046875-43.710938 40.8125h72.066407c1.65625 0 3 1.34375 3 3s-1.34375 3-3 3h-75.171876c-1.65625 0-3-1.34375-3-3 0-27.46875 22.347657-49.8125 49.816407-49.8125h81.183593c27.46875 0 49.816407 22.34375 49.816407 49.8125-.003907 1.65625-1.34375 3-3.003907 3zm0 0" fill="#3a312a" data-original="#3a312a" style="" class=""/><path xmlns="http://www.w3.org/2000/svg" d="m65.570312 377.664062s6.816407 25.320313 26.445313 26.496094c0 0-26.203125 9.050782-26.644531 28.402344 0 0-5.15625-27.140625-25.847656-28.117188 0 0 24.097656-3.652343 26.046874-26.78125zm0 0" fill="#d7e057" data-original="#d7e057" style="" class=""/><path xmlns="http://www.w3.org/2000/svg" d="m65.367188 435.5625c-1.421876 0-2.667969-1.011719-2.941407-2.433594-.050781-.25-4.992187-24.835937-23.046875-25.6875-1.539062-.074218-2.773437-1.300781-2.855468-2.84375-.078126-1.539062 1.023437-2.886718 2.546874-3.121094.882813-.136718 21.789063-3.632812 23.511719-24.0625.121094-1.453124 1.269531-2.601562 2.71875-2.734374 1.441407-.121094 2.785157.796874 3.164063 2.203124.066406.234376 6.519531 23.253907 23.726562 24.28125 1.429688.085938 2.597656 1.167969 2.792969 2.585938.195313 1.414062-.636719 2.777344-1.988281 3.242188-.242188.085937-24.234375 8.625-24.625 25.640624-.035156 1.53125-1.222656 2.792969-2.75 2.917969-.082032.007813-.167969.011719-.253906.011719zm-15.480469-31.457031c7.757812 3.9375 12.460937 11.492187 15.175781 17.753906 4.050781-8.042969 11.882812-13.574219 17.898438-16.855469-8.269532-3.6875-13.566407-11.300781-16.667969-17.445312-3.585938 8.71875-10.546875 13.734375-16.40625 16.546875zm0 0" fill="#3a312a" data-original="#3a312a" style="" class=""/><path xmlns="http://www.w3.org/2000/svg" d="m22.171875 411.628906s4.820313 17.90625 18.703125 18.738282c0 0-18.53125 6.402343-18.84375 20.089843 0 0-3.648438-19.199219-18.285156-19.886719 0 0 17.050781-2.585937 18.425781-18.941406zm0 0" fill="#d7e057" data-original="#d7e057" style="" class=""/><path xmlns="http://www.w3.org/2000/svg" d="m22.03125 453.457031c-1.425781 0-2.675781-1.015625-2.945312-2.441406-.03125-.164063-3.40625-16.882813-15.476563-17.453125-1.542969-.070312-2.777344-1.296875-2.855469-2.839844-.082031-1.539062 1.019532-2.886718 2.546875-3.121094.589844-.09375 14.726563-2.488281 15.882813-16.226562.121094-1.453125 1.269531-2.605469 2.71875-2.738281 1.457031-.148438 2.785156.800781 3.164062 2.207031.042969.15625 4.457032 15.839844 15.988282 16.527344 1.429687.085937 2.597656 1.167968 2.792968 2.585937.195313 1.417969-.636718 2.777344-1.992187 3.246094-.160157.054687-16.5625 5.90625-16.824219 17.320313-.035156 1.535156-1.222656 2.792968-2.75 2.921874-.085938.007813-.167969.011719-.25.011719zm-9.039062-23.054687c4.214843 2.664062 7.046874 6.789062 8.894531 10.558594 2.75-4.464844 7.027343-7.742188 10.726562-9.945313-4.574219-2.535156-7.765625-6.699219-9.882812-10.449219-2.34375 4.578125-6.027344 7.753906-9.738281 9.835938zm0 0" fill="#3a312a" data-original="#3a312a" style="" class=""/><path xmlns="http://www.w3.org/2000/svg" d="m22.171875 358.3125s4.820313 17.90625 18.703125 18.738281c0 0-18.53125 6.402344-18.84375 20.09375 0 0-3.648438-19.199219-18.285156-19.886719 0-.003906 17.050781-2.585937 18.425781-18.945312zm0 0" fill="#d7e057" data-original="#d7e057" style="" class=""/><path xmlns="http://www.w3.org/2000/svg" d="m22.03125 400.140625c-1.425781 0-2.675781-1.011719-2.945312-2.4375-.03125-.164063-3.40625-16.886719-15.480469-17.457031-1.539063-.070313-2.773438-1.296875-2.851563-2.839844-.078125-1.539062 1.019532-2.886719 2.546875-3.121094.589844-.09375 14.726563-2.484375 15.882813-16.226562.121094-1.453125 1.269531-2.605469 2.71875-2.738282 1.457031-.132812 2.785156.800782 3.164062 2.207032.042969.15625 4.457032 15.839844 15.988282 16.53125 1.429687.082031 2.597656 1.167968 2.792968 2.585937.195313 1.417969-.640625 2.777344-1.992187 3.242188-.160157.058593-16.5625 5.90625-16.824219 17.324219-.035156 1.535156-1.222656 2.796874-2.75 2.921874-.085938.003907-.167969.007813-.25.007813zm-9.039062-23.050781c4.214843 2.664062 7.046874 6.789062 8.894531 10.554687 2.75-4.460937 7.027343-7.742187 10.726562-9.941406-4.574219-2.542969-7.765625-6.703125-9.882812-10.449219-2.34375 4.574219-6.027344 7.753906-9.738281 9.835938zm0 0" fill="#3a312a" data-original="#3a312a" style="" class=""/><path xmlns="http://www.w3.org/2000/svg" d="m391.007812 51.839844v231.316406c0 11.5-9.359374 20.839844-20.835937 20.839844h-.003906 30c11.480469 0 20.839843-9.339844 20.839843-20.839844v-231.316406c0-11.5-9.359374-20.84375-20.839843-20.84375h-30c11.480469 0 20.839843 9.34375 20.839843 20.84375zm0 0" fill="#b9c239" data-original="#b9c239" style=""/><path xmlns="http://www.w3.org/2000/svg" d="m302.226562 148.726562c0 41.976563-34.023437 76-76 76-41.972656 0-76-34.023437-76-76 0-41.972656 34.027344-76 76-76 41.976563 0 76 34.027344 76 76zm0 0" fill="#fae6ca" data-original="#fae6ca" style="" class=""/><path xmlns="http://www.w3.org/2000/svg" d="m226.226562 227.726562c-43.558593 0-79-35.4375-79-79 0-43.558593 35.441407-79 79-79 43.5625 0 79 35.441407 79 79 0 43.5625-35.4375 79-79 79zm0-152c-40.25 0-73 32.75-73 73 0 40.253907 32.75 73 73 73 40.253907 0 73-32.746093 73-73 0-40.25-32.746093-73-73-73zm0 0" fill="#3a312a" data-original="#3a312a" style="" class=""/><path xmlns="http://www.w3.org/2000/svg" d="m279.457031 138.703125-73.097656-42.203125c-7.71875-4.457031-17.367187 1.113281-17.367187 10.027344v84.402344c0 8.914062 9.648437 14.480468 17.367187 10.027343l73.097656-42.203125c7.71875-4.457031 7.71875-15.597656 0-20.050781zm0 0" fill="#eb6e7a" data-original="#eb6e7a" style="" class=""/><path xmlns="http://www.w3.org/2000/svg" d="m200.570312 205.53125c-2.503906 0-5.007812-.660156-7.289062-1.976562-4.5625-2.632813-7.289062-7.355469-7.289062-12.621094v-84.410156c0-5.269532 2.722656-9.988282 7.289062-12.625 4.566406-2.632813 10.015625-2.628907 14.578125.003906l73.097656 42.203125c4.5625 2.632812 7.289063 7.355469 7.289063 12.621093 0 5.269532-2.722656 9.992188-7.289063 12.625l-73.097656 42.203126c-2.28125 1.316406-4.785156 1.976562-7.289063 1.976562zm0-107.59375c-1.472656 0-2.945312.382812-4.289062 1.160156-2.683594 1.550782-4.289062 4.328125-4.289062 7.429688v84.40625c0 3.101562 1.605468 5.875 4.289062 7.425781 2.6875 1.550781 5.894531 1.550781 8.578125 0l73.097656-42.203125c2.683594-1.546875 4.289063-4.328125 4.289063-7.429688 0-3.101562-1.605469-5.875-4.289063-7.429687l-73.097656-42.199219c-1.339844-.777344-2.816406-1.160156-4.289063-1.160156zm0 0" fill="#3a312a" data-original="#3a312a" style="" class=""/></g></svg>
