<svg width="56" height="56" viewBox="0 0 56 56" fill="none" xmlns="http://www.w3.org/2000/svg">
<g clip-path="url(#clip0)">
<path d="M18.549 29.909C15.792 29.909 13.549 32.6 13.549 35.909C13.549 39.218 15.792 41.909 18.549 41.909C21.306 41.909 23.549 39.218 23.549 35.909C23.549 32.6 21.306 29.909 18.549 29.909ZM18.549 39.909C16.895 39.909 15.549 38.115 15.549 35.909C15.549 33.703 16.895 31.909 18.549 31.909C20.203 31.909 21.549 33.703 21.549 35.909C21.549 38.115 20.204 39.909 18.549 39.909Z" fill="white"/>
<path d="M37.549 29.909C34.792 29.909 32.549 32.6 32.549 35.909C32.549 39.218 34.792 41.909 37.549 41.909C40.306 41.909 42.549 39.218 42.549 35.909C42.549 32.6 40.306 29.909 37.549 29.909ZM37.549 39.909C35.895 39.909 34.549 38.115 34.549 35.909C34.549 33.703 35.895 31.909 37.549 31.909C39.203 31.909 40.549 33.703 40.549 35.909C40.549 38.115 39.204 39.909 37.549 39.909Z" fill="white"/>
<path d="M39.075 24.909C39.026 24.909 38.975 24.909 38.926 24.91C38 24.926 37.073 24.964 36.146 25.001C35.302 25.035 34.458 25.069 33.615 25.086L32.15 25.117C29.607 25.17 26.972 25.224 24.399 25.214C23.225 25.209 22.05 25.165 20.877 25.121C19.279 25.061 17.629 24.997 15.991 25.038C13.718 25.093 11.806 25.819 10.306 27.197C7.81501 29.486 6.78501 32.522 7.15801 36.479C7.70001 42.222 10.018 45.159 15.16 46.614C19.483 47.837 23.825 47.947 27.482 47.895L28.7 47.901C29.111 47.904 29.522 47.908 29.933 47.908C30.44 47.908 30.947 47.903 31.454 47.887C35.049 47.772 38.2 47.235 41.086 46.243C44.255 45.155 46.365 43.077 47.355 40.068C48.111 37.768 48.333 35.589 48.034 33.406C47.547 29.856 44.45 24.909 39.075 24.909ZM45.456 39.444C44.661 41.861 43.019 43.466 40.437 44.352C37.742 45.277 34.783 45.78 31.391 45.888C30.5 45.916 29.609 45.908 28.718 45.902L27.469 45.895C23.944 45.945 19.781 45.843 15.706 44.689C11.389 43.468 9.61201 41.191 9.15001 36.292C8.84001 33 9.66101 30.507 11.659 28.67C12.792 27.63 14.265 27.081 16.039 27.037C17.615 27.001 19.235 27.06 20.801 27.119C21.997 27.164 23.194 27.209 24.39 27.214C26.998 27.226 29.637 27.17 32.192 27.116L33.655 27.086C34.512 27.068 35.369 27.033 36.226 26.999C37.137 26.962 38.048 26.925 38.959 26.91C38.995 26.909 39.031 26.909 39.067 26.909C43.197 26.909 45.674 30.931 46.051 33.68C46.31 35.554 46.114 37.44 45.456 39.444Z" fill="white"/>
<path d="M51.866 18.56C51.271 17.741 50.999 17.259 51.084 16.384C51.261 14.541 51.009 12.686 50.765 10.893L50.749 10.775C50.423 8.371 49.795 6.077 48.882 3.956L48.557 3.202L47.08 3.516C45.029 3.947 42.907 4.393 40.973 5.51C39.689 6.252 38.411 7.043 37.176 7.807C36.349 8.319 35.522 8.831 34.69 9.33C34.645 9.357 34.555 9.379 34.53 9.379C30.057 8.598 25.412 8.59 20.72 9.356C20.662 9.366 20.473 9.334 20.323 9.245C19.807 8.936 19.304 8.604 18.802 8.273C18.219 7.888 17.635 7.504 17.035 7.153C14.173 5.473 11.011 3.852 7.282 3.376L6.552 3.282L6.163 4.125C6.09 4.279 6.028 4.412 5.977 4.55C4.907 7.434 4.262 10.458 4.053 13.635C3.98 14.736 3.905 15.875 4.067 17.012C4.121 17.389 4.076 17.465 3.929 17.649C2.582 19.328 1.619 21.084 0.984004 23.017C-0.0829962 26.263 -0.275996 29.862 0.375004 34.341C0.915004 38.088 1.834 40.822 3.352 43.204C6.545 48.212 11.474 51.033 18.003 51.589C21.266 51.867 24.577 51.909 27.823 51.909C28.521 51.909 29.216 51.907 29.907 51.905C30.818 51.902 31.73 51.9 32.639 51.902C36.819 51.904 40.153 51.36 43.184 50.173C48.58 48.062 52.168 44.13 53.847 38.485C54.783 35.34 55.202 31.996 55.092 28.544C54.97 24.698 53.884 21.339 51.866 18.56ZM51.931 37.915C50.415 43.008 47.316 46.409 42.456 48.311C39.666 49.404 36.586 49.921 32.644 49.902C31.731 49.9 30.817 49.902 29.903 49.905C26.042 49.916 22.05 49.927 18.174 49.596C12.216 49.089 7.919 46.646 5.039 42.129C3.68 39.998 2.852 37.508 2.354 34.054C1.74 29.834 1.904 26.623 2.884 23.641C3.443 21.94 4.295 20.389 5.489 18.899C6.012 18.247 6.173 17.618 6.046 16.729C5.913 15.798 5.982 14.765 6.054 13.668C6.238 10.861 6.815 8.103 7.768 5.471C10.833 6.013 13.541 7.42 16.021 8.876C16.591 9.21 17.145 9.576 17.698 9.94C18.225 10.288 18.753 10.635 19.295 10.959C19.835 11.281 20.487 11.419 21.042 11.327C25.51 10.598 29.932 10.604 34.188 11.348C34.678 11.431 35.263 11.315 35.716 11.044C36.557 10.539 37.391 10.023 38.226 9.506C39.468 8.737 40.709 7.969 41.972 7.24C43.591 6.305 45.418 5.908 47.353 5.5C48.028 7.24 48.502 9.101 48.766 11.041L48.782 11.159C49.01 12.84 49.246 14.578 49.091 16.189C48.937 17.783 49.55 18.775 50.246 19.733C52.049 22.216 52.98 25.119 53.092 28.605C53.197 31.845 52.806 34.977 51.931 37.915Z" fill="white"/>
</g>
<defs>
<clipPath id="clip0">
<rect width="55.11" height="55.11" fill="white"/>
</clipPath>
</defs>
</svg>
