<svg width="511" height="511" viewBox="0 0 511 511" fill="none" xmlns="http://www.w3.org/2000/svg">
<g clip-path="url(#clip0)">
<path d="M293.952 121.021L317.707 125.212C317.952 126.958 318.256 128.701 318.619 130.424L297.738 142.483C291.641 145.999 289.547 153.824 293.064 159.917L305.165 180.876C308.685 186.974 316.479 189.083 322.603 185.547L343.492 173.485C344.806 174.662 346.155 175.8 347.543 176.888L339.293 199.551C336.88 206.182 340.291 213.5 346.923 215.913L369.664 224.19C376.291 226.603 383.609 223.192 386.022 216.561L394.272 193.894C396.042 193.956 397.792 193.956 399.562 193.894L407.812 216.561C410.213 223.161 417.515 226.615 424.17 224.19L446.915 215.913C453.543 213.5 456.958 206.182 454.545 199.555L446.295 176.888C447.679 175.8 449.032 174.666 450.342 173.489L471.235 185.547C477.355 189.083 485.153 186.974 488.669 180.876L500.771 159.917C504.291 153.824 502.194 146.003 496.1 142.483L475.219 130.424C475.582 128.701 475.886 126.958 476.131 125.212L499.882 121.021C506.813 119.801 511.457 113.165 510.236 106.237L506.034 82.405C504.81 75.4693 498.209 70.8261 491.246 72.0502L467.5 76.2374C466.669 74.6818 465.784 73.1496 464.849 71.6526L480.35 53.177C484.888 47.7735 484.182 39.7306 478.778 35.1965L460.237 19.641C454.845 15.1186 446.782 15.8243 442.256 21.2122L426.763 39.68C425.122 39.0211 423.461 38.4168 421.781 37.8671V13.7619C421.781 6.72488 416.057 0.997803 409.016 0.997803H384.818C377.781 0.997803 372.054 6.72488 372.054 13.7619V37.8671C370.373 38.4168 368.712 39.0211 367.075 39.68L351.578 21.2122C347.056 15.8243 338.985 15.1186 333.594 19.641L315.06 35.1965C309.652 39.7306 308.95 47.7735 313.485 53.177L328.985 71.6526C328.054 73.1496 327.169 74.6818 326.334 76.2374L302.592 72.0502C295.644 70.8222 289.028 75.4537 287.804 82.405L283.602 106.237C282.381 113.165 287.025 119.801 293.952 121.021V121.021ZM302.229 87.2705L329.297 92.0424C332.705 92.6389 336.085 90.8416 337.488 87.6759C339.367 83.4303 341.714 79.368 344.471 75.6058C346.518 72.8105 346.389 68.9781 344.163 66.3232L326.483 45.255L341.52 32.639L359.188 53.6994C361.414 56.3544 365.169 57.1458 368.276 55.6136C372.451 53.5591 376.857 51.9528 381.375 50.8456C384.74 50.0191 387.106 47.0016 387.106 43.5357V16.0504H406.732V43.5396C406.732 47.0055 409.098 50.0191 412.463 50.8495C416.977 51.9567 421.387 53.5591 425.558 55.6136C428.669 57.1458 432.42 56.3544 434.65 53.6994L452.318 32.6429L467.352 45.255L449.675 66.3232C447.445 68.9781 447.32 72.8105 449.367 75.6058C452.12 79.368 454.467 83.4303 456.35 87.6759C457.749 90.8416 461.129 92.6389 464.537 92.0424L491.609 87.2705L495.016 106.596L467.929 111.372C464.513 111.976 461.952 114.83 461.726 118.288C461.418 122.951 460.607 127.571 459.32 132.019C458.357 135.344 459.788 138.9 462.786 140.631L486.591 154.374L476.778 171.368L452.962 157.617C449.964 155.886 446.17 156.424 443.769 158.923C440.541 162.284 436.946 165.301 433.087 167.894C430.213 169.824 429.028 173.465 430.209 176.717L439.617 202.553L421.172 209.266L411.769 183.426C410.584 180.175 407.34 178.147 403.898 178.518C399.25 179.013 394.588 179.013 389.937 178.518C386.486 178.147 383.25 180.175 382.065 183.426L372.662 209.266L354.221 202.553L363.625 176.717C364.806 173.465 363.621 169.824 360.748 167.894C356.888 165.301 353.293 162.284 350.065 158.923C347.668 156.424 343.874 155.886 340.876 157.617L317.056 171.368L307.243 154.374L331.048 140.631C334.046 138.9 335.477 135.344 334.514 132.019C333.227 127.571 332.42 122.951 332.112 118.288C331.882 114.83 329.321 111.976 325.909 111.372L298.822 106.596L302.229 87.2705Z" fill="white"/>
<path d="M396.919 171.368C448.669 171.368 474.997 108.444 438.225 71.6721C415.449 48.8963 378.389 48.8963 355.613 71.6721C318.884 108.401 345.122 171.368 396.919 171.368V171.368ZM396.919 69.6331C435.367 69.6331 454.849 116.374 427.582 143.641C410.673 160.549 383.165 160.549 366.256 143.641C338.989 116.378 358.471 69.6331 396.919 69.6331V69.6331Z" fill="white"/>
<path d="M419.89 135.949C432.587 123.255 432.587 102.705 419.89 90.0073C399.593 69.711 364.432 83.9566 364.432 112.978C364.432 142.019 399.609 156.233 419.89 135.949V135.949ZM396.919 95.5433C412.51 95.5433 420.127 114.424 409.246 125.305C398.268 136.288 379.484 128.409 379.484 112.978C379.484 103.344 387.282 95.5433 396.919 95.5433Z" fill="white"/>
<path d="M233.489 305.73C233.489 294.167 236.678 277.469 251.882 263.578C306.814 213.391 300.639 124.662 238.483 82.787C235.036 80.4635 230.358 81.3757 228.038 84.8221C225.715 88.2685 226.627 92.9469 230.073 95.2704C284.268 131.781 289.356 208.954 241.73 252.467C238.229 255.664 235.243 258.974 232.682 262.342H115.551C113.037 258.985 110.097 255.687 106.647 252.545C39.1071 190.978 83.107 78.5999 174.148 78.2296C184.69 78.2296 195.068 79.8553 204.997 83.0639C208.951 84.3426 213.196 82.1711 214.475 78.214C215.75 74.2608 213.582 70.0191 209.625 68.7403C170.565 56.1166 125.243 64.7364 93.0134 96.7246C45.4697 143.917 48.4443 219.859 96.5065 263.668C118.195 283.438 114.772 305.855 114.772 340.825C114.772 385.274 162.074 413.952 201.415 393.578C205.107 391.667 206.549 387.125 204.635 383.437C202.725 379.745 198.183 378.303 194.495 380.213C165.165 395.398 129.824 374.034 129.824 340.829V317.434H218.467V340.829C218.467 348.463 216.495 355.987 212.767 362.591C210.721 366.209 211.996 370.802 215.617 372.845C219.231 374.891 223.828 373.613 225.871 369.995C230.877 361.137 233.52 351.051 233.52 340.825C233.52 304.502 233.489 305.73 233.489 305.73V305.73ZM218.506 302.385H129.84C129.481 296.17 128.159 287.094 124.117 277.395H223.98C220.249 286.311 218.822 295.001 218.506 302.385Z" fill="white"/>
<path d="M174.148 47.3096C178.304 47.3096 181.672 43.9412 181.672 39.7852V8.52215C181.672 4.36621 178.304 0.997803 174.148 0.997803C169.988 0.997803 166.619 4.36621 166.619 8.52215V39.7852C166.619 43.9412 169.988 47.3096 174.148 47.3096Z" fill="white"/>
<path d="M74.5144 87.902C81.1577 87.902 84.5923 79.8085 79.836 75.0561L57.7308 52.947C54.7913 50.0113 50.0271 50.0113 47.0876 52.947C44.148 55.8865 44.148 60.6545 47.0876 63.5902C70.4832 86.9897 70.3039 87.902 74.5144 87.902Z" fill="white"/>
<path d="M46.3118 179.528C46.3118 175.372 42.9434 172.003 38.7874 172.003H7.52434C3.36841 172.003 0 175.372 0 179.528C0 183.683 3.36841 187.052 7.52434 187.052H38.7874C42.9434 187.052 46.3118 183.683 46.3118 179.528Z" fill="white"/>
<path d="M68.0349 273.839L45.9297 295.944C42.9901 298.884 42.9901 303.648 45.9297 306.588C48.8692 309.523 53.6334 309.523 56.5729 306.588L78.6781 284.478C81.6177 281.539 81.6177 276.775 78.6781 273.839C75.7386 270.9 70.9744 270.9 68.0349 273.839Z" fill="white"/>
<path d="M499.683 388.412C507.117 387.102 512.1 379.983 510.79 372.545L505.843 344.474C504.529 337.036 497.41 332.057 489.975 333.363L461.047 338.467C459.8 336.077 458.451 333.741 457.001 331.469L475.886 308.962C480.751 303.165 479.999 294.529 474.197 289.668L452.361 271.344C446.576 266.49 437.921 267.247 433.067 273.032L414.19 295.527C411.699 294.498 409.161 293.574 406.588 292.763V263.395C406.588 255.843 400.443 249.699 392.892 249.699H364.389C356.837 249.699 350.693 255.843 350.693 263.395V292.763C348.12 293.574 345.582 294.498 343.091 295.527L324.214 273.032C319.348 267.235 310.716 266.479 304.919 271.344L283.083 289.668C277.286 294.529 276.529 303.161 281.395 308.962L300.28 331.469C298.83 333.741 297.481 336.077 296.233 338.467L267.305 333.367C259.871 332.057 252.752 337.036 251.442 344.474L246.491 372.545C245.181 379.983 250.163 387.098 257.598 388.412L286.537 393.511C286.884 396.19 287.352 398.849 287.929 401.476L262.49 416.162C255.952 419.936 253.703 428.33 257.481 434.872L271.73 459.558C275.508 466.096 283.898 468.345 290.44 464.572L315.89 449.878C317.878 451.694 319.945 453.429 322.077 455.071L312.026 482.685C309.446 489.78 313.118 497.655 320.214 500.236L346.997 509.987C354.093 512.567 361.968 508.899 364.553 501.799L374.599 474.186C377.301 474.306 379.976 474.306 382.677 474.186L392.728 501.799C395.317 508.914 403.168 512.575 410.283 509.987L437.067 500.236C444.162 497.655 447.835 489.78 445.254 482.685L435.203 455.071C437.336 453.429 439.402 451.694 441.387 449.878L466.841 464.572C473.394 468.357 481.765 466.115 485.546 459.558L499.8 434.872C503.578 428.33 501.328 419.94 494.786 416.162L469.348 401.476C469.928 398.849 470.392 396.19 470.743 393.515L499.683 388.412ZM456.891 411.663L486.088 428.517L473.192 450.856L443.979 433.987C440.981 432.256 437.188 432.794 434.786 435.293C430.919 439.32 426.611 442.938 421.987 446.045C419.114 447.975 417.929 451.613 419.114 454.864L430.646 486.556L406.412 495.375C388.755 446.872 397.972 461.729 370.276 458.774C366.829 458.408 363.59 460.431 362.404 463.683L350.872 495.375L326.635 486.556L338.171 454.864C339.352 451.613 338.167 447.975 335.293 446.045C330.67 442.938 326.362 439.32 322.494 435.293C320.093 432.794 316.299 432.256 313.301 433.987L284.089 450.856L271.192 428.517L300.389 411.663C303.387 409.932 304.818 406.381 303.855 403.055C296.058 376.108 312.44 382.798 261.551 373.823L266.027 348.424L299.227 354.279C302.635 354.876 306.019 353.075 307.418 349.913C309.672 344.821 312.486 339.956 315.785 335.445C317.831 332.65 317.707 328.818 315.477 326.163L293.796 300.322L313.555 283.746L335.227 309.574C337.453 312.229 341.208 313.02 344.315 311.488C349.317 309.028 354.599 307.106 360.015 305.777C363.379 304.95 365.746 301.933 365.746 298.467V264.751H391.535V298.467C391.535 301.933 393.901 304.946 397.266 305.777C402.681 307.106 407.964 309.028 412.966 311.488C416.073 313.02 419.827 312.229 422.053 309.574L443.726 283.746L463.484 300.326L441.804 326.163C439.574 328.818 439.445 332.65 441.492 335.445C444.794 339.956 447.609 344.821 449.862 349.913C451.262 353.079 454.642 354.876 458.049 354.279L491.254 348.424L495.73 373.823L462.509 379.683C459.098 380.283 456.537 383.137 456.307 386.595C455.936 392.186 454.969 397.722 453.426 403.055C452.463 406.381 453.893 409.932 456.891 411.663V411.663Z" fill="white"/>
<path d="M354.775 317.133C350.888 318.607 348.927 322.95 350.397 326.837C351.87 330.724 356.213 332.685 360.1 331.215C394.361 318.252 431.055 343.734 431.055 380.256C431.055 409.156 407.543 432.669 378.638 432.669C333.944 432.669 309.847 380.034 338.794 346.201C341.496 343.044 341.126 338.295 337.968 335.589C334.81 332.888 330.061 333.258 327.356 336.416C290.104 379.96 321.095 447.722 378.638 447.722C415.839 447.722 446.104 417.457 446.104 380.256C446.108 333.289 398.931 300.436 354.775 317.133V317.133Z" fill="white"/>
<path d="M378.638 423.071C416.513 423.067 435.975 377.016 408.927 349.968C381.952 322.993 335.804 342.354 335.804 380.256C335.804 404.034 355.059 423.075 378.638 423.071V423.071ZM378.638 352.486C403.504 352.486 415.617 382.568 398.287 399.901C387.453 410.732 369.827 410.732 358.997 399.901C341.722 382.63 353.699 352.486 378.638 352.486Z" fill="white"/>
</g>
<defs>
<clipPath id="clip0">
<rect width="511" height="511" fill="white"/>
</clipPath>
</defs>
</svg>
